<svg width="40" height="40" viewBox="0 0 40 40" fill="none" xmlns="http://www.w3.org/2000/svg"><path d="M40 20C40 8.95431 31.0457 0 20 0V0C8.95431 0 0 8.95431 0 20V20C0 31.0457 8.95431 40 20 40V40C31.0457 40 40 31.0457 40 20V20Z" fill="#fff"/><path d="M39.5 20C39.5 30.7696 30.7696 39.5 20 39.5C9.23045 39.5 0.5 30.7696 0.5 20C0.5 9.23045 9.23045 0.5 20 0.5C30.7696 0.5 39.5 9.23045 39.5 20Z" stroke="#000" stroke-opacity=".17"/><path fill-rule="evenodd" clip-rule="evenodd" d="M29.7875 20.2273C29.7875 19.5182 29.7239 18.8364 29.6057 18.1818H20.1875V22.05H25.5693C25.3375 23.3 24.633 24.3591 23.5739 25.0682V27.5773H26.8057C28.6966 25.8364 29.7875 23.2728 29.7875 20.2273Z" fill="#4285F4"/><path fill-rule="evenodd" clip-rule="evenodd" d="M20.1864 30C22.8864 30 25.15 29.1045 26.8046 27.5772L23.5728 25.0681C22.6773 25.6681 21.5318 26.0227 20.1864 26.0227C17.5818 26.0227 15.3773 24.2636 14.5909 21.8999H11.25V24.4909C12.8955 27.7591 16.2773 30 20.1864 30Z" fill="#34A853"/><path fill-rule="evenodd" clip-rule="evenodd" d="M14.5921 21.9C14.3921 21.3 14.2784 20.659 14.2784 20C14.2784 19.3409 14.3921 18.6999 14.5921 18.0999V15.509H11.2511C10.5739 16.859 10.1875 18.3863 10.1875 20C10.1875 21.6136 10.5739 23.1409 11.2511 24.4909L14.5921 21.9Z" fill="#FBBC05"/><path fill-rule="evenodd" clip-rule="evenodd" d="M20.1864 13.9773C21.6546 13.9773 22.9728 14.4818 24.0091 15.4727L26.8773 12.6046C25.1455 10.9909 22.8818 10 20.1864 10C16.2773 10 12.8955 12.2409 11.25 15.5091L14.5909 18.1C15.3773 15.7364 17.5818 13.9773 20.1864 13.9773Z" fill="#EA4335"/></svg>