<svg width="20" height="21" viewBox="0 0 20 21" fill="none" xmlns="http://www.w3.org/2000/svg"><path d="M10 2.25244C12.6506 2.25244 13.0121 2.25244 14.0964 2.25244C15.0602 2.25244 15.5422 2.49495 15.9036 2.61621C16.3855 2.85872 16.747 2.97998 17.1084 3.34375C17.4699 3.70752 17.7108 4.07129 17.8313 4.55631C17.9518 4.92008 18.0723 5.40511 18.1928 6.37516C18.1928 7.46647 18.1928 7.70898 18.1928 10.4979C18.1928 13.2868 18.1928 13.5293 18.1928 14.6206C18.1928 15.5907 17.9518 16.0757 17.8313 16.4394C17.5904 16.9245 17.4699 17.2882 17.1084 17.652C16.747 18.0158 16.3855 18.2583 15.9036 18.3796C15.5422 18.5008 15.0602 18.6221 14.0964 18.7433C13.0121 18.7433 12.7711 18.7433 10 18.7433C7.22892 18.7433 6.98795 18.7433 5.90362 18.7433C4.93976 18.7433 4.45783 18.5008 4.09639 18.3796C3.61446 18.137 3.25301 18.0158 2.89157 17.652C2.53012 17.2882 2.28916 16.9245 2.16868 16.4394C2.04819 16.0757 1.92771 15.5907 1.80723 14.6206C1.80723 13.5293 1.80723 13.2868 1.80723 10.4979C1.80723 7.70898 1.80723 7.46647 1.80723 6.37516C1.80723 5.40511 2.04819 4.92008 2.16868 4.55631C2.40964 4.07129 2.53012 3.70752 2.89157 3.34375C3.25301 2.97998 3.61446 2.73747 4.09639 2.61621C4.45783 2.49495 4.93976 2.3737 5.90362 2.25244C6.98795 2.25244 7.3494 2.25244 10 2.25244ZM10 0.433594C7.22892 0.433594 6.98795 0.433594 5.90362 0.433594C4.81928 0.433594 4.09639 0.676107 3.49398 0.91862C2.89157 1.16113 2.28916 1.5249 1.68675 2.13119C1.08434 2.73747 0.843374 3.22249 0.481928 3.95003C0.240965 4.55631 0.120482 5.28385 0 6.37516C0 7.46647 0 7.83024 0 10.4979C0 13.2868 0 13.5293 0 14.6206C0 15.7119 0.240965 16.4394 0.481928 17.0457C0.722892 17.652 1.08434 18.2583 1.68675 18.8646C2.28916 19.4709 2.77109 19.7134 3.49398 20.0771C4.09639 20.3197 4.81928 20.4409 5.90362 20.5622C6.98795 20.5622 7.3494 20.5622 10 20.5622C12.6506 20.5622 13.0121 20.5622 14.0964 20.5622C15.1807 20.5622 15.9036 20.3197 16.506 20.0771C17.1084 19.8346 17.7108 19.4709 18.3133 18.8646C18.9157 18.2583 19.1566 17.7733 19.5181 17.0457C19.759 16.4394 19.8795 15.7119 20 14.6206C20 13.5293 20 13.1655 20 10.4979C20 7.83024 20 7.46647 20 6.37516C20 5.28385 19.759 4.55631 19.5181 3.95003C19.2771 3.34375 18.9157 2.73747 18.3133 2.13119C17.7108 1.5249 17.2289 1.28239 16.506 0.91862C15.9036 0.676107 15.1807 0.55485 14.0964 0.433594C13.0121 0.433594 12.7711 0.433594 10 0.433594Z" fill="#fff"/><path d="M10 5.28385C7.10843 5.28385 4.81928 7.58773 4.81928 10.4979C4.81928 13.408 7.10843 15.7119 10 15.7119C12.8916 15.7119 15.1807 13.408 15.1807 10.4979C15.1807 7.58773 12.8916 5.28385 10 5.28385ZM10 13.8931C8.19277 13.8931 6.62651 12.438 6.62651 10.4979C6.62651 8.67903 8.07229 7.1027 10 7.1027C11.8072 7.1027 13.3735 8.55778 13.3735 10.4979C13.3735 12.3167 11.8072 13.8931 10 13.8931Z" fill="#fff"/><path d="M15.3012 6.37516C15.9666 6.37516 16.506 5.83228 16.506 5.1626C16.506 4.49292 15.9666 3.95003 15.3012 3.95003C14.6358 3.95003 14.0964 4.49292 14.0964 5.1626C14.0964 5.83228 14.6358 6.37516 15.3012 6.37516Z" fill="#fff"/></svg>