<svg width="62" height="62" viewBox="0 0 62 62" fill="none" xmlns="http://www.w3.org/2000/svg"><mask id="path-1-outside-1_65_2865" maskUnits="userSpaceOnUse" x="0" y="0" width="62" height="62" fill="#000"><path fill="#fff" d="M0 0H62V62H0z"/><path fill-rule="evenodd" clip-rule="evenodd" d="M28.1875 1.1339C25.3544 1.40491 21.797 2.30512 19.2688 3.3908C18.3808 3.77221 18.1774 4.55005 18.8373 5.04057L19.166 5.28495L19.8932 5.00948C24.1904 3.38142 27.2362 2.7663 31.0004 2.7663C52.0172 2.7663 65.6087 24.884 56.1974 43.7699C55.0865 45.9993 52.6513 49.4707 51.4319 50.5634L51.1824 50.7869V49.1209C51.1824 46.9918 50.6253 46.2522 49.7106 47.167L49.4226 47.4549V50.3188C49.4226 53.0384 49.4348 53.1982 49.6658 53.4917L49.9089 53.8009H52.8716C56.1645 53.8009 56.3446 53.7561 56.3446 52.9374C56.3446 52.1966 55.9568 52.0411 54.1112 52.0411H52.454L53.2361 51.1905C60.1933 43.6256 62.7146 32.6963 59.8208 22.6474C55.868 8.92072 42.4167 -0.227373 28.1875 1.1339ZM6.13122 8.28038C5.78184 8.62977 5.81833 9.25767 6.20572 9.56235C6.48495 9.78209 6.67336 9.80555 8.15712 9.80555H9.79926L8.93202 10.7148C1.96845 18.0147 -0.711163 29.1874 2.10149 39.1944C6.89381 56.245 25.5234 65.4459 42.0745 58.9365C43.8844 58.2247 44.2514 57.7879 43.6653 57.043C43.3286 56.6149 43.0207 56.6454 41.5073 57.2569C25.1242 63.8765 6.47122 53.6352 3.25839 36.2565C1.59959 27.284 4.58728 17.2398 10.636 11.4544L11.0587 11.0501V12.7209C11.0587 14.5689 11.2149 14.9677 11.9386 14.9677C12.1058 14.9677 12.3721 14.838 12.5305 14.6796L12.8185 14.3917V11.5067V8.62167L12.5305 8.33376L12.2426 8.04574H9.30417C6.52225 8.04574 6.35343 8.05818 6.13122 8.28038ZM28.305 9.46486C27.3217 9.86785 27.1317 10.374 27.1317 12.59V14.4477L25.9953 14.7891C25.3703 14.9768 24.2289 15.4411 23.4589 15.8207L22.0589 16.511L20.753 15.224C18.5602 13.0631 18.2965 13.0884 15.6737 15.7111C13.0631 18.3219 13.0373 18.5874 15.1824 20.7826L16.4712 22.1015L15.7824 23.4984C15.4036 24.2668 14.9425 25.4069 14.7578 26.0322L14.4222 27.169H12.5231C9.44788 27.169 9.35755 27.2794 9.35755 31.0406C9.35755 34.8051 9.44554 34.9122 12.538 34.9122H14.452L14.5759 35.4108C14.8037 36.3278 15.4201 37.8938 15.9619 38.9319L16.4985 39.9597L15.1984 41.2783C13.0598 43.4472 13.0828 43.767 15.5575 46.2725C18.2386 48.9871 18.5476 49.017 20.8245 46.7823L22.0845 45.5456L23.1122 46.0801C24.1824 46.6367 25.3069 47.0833 26.4571 47.4087L27.1317 47.5995V49.4742C27.1317 51.5788 27.1938 51.8082 27.9143 52.3576L28.3452 52.6863H31.0149C34.766 52.6863 34.8748 52.5966 34.8748 49.5059V47.5919L35.3734 47.468C36.2897 47.2404 37.8561 46.6239 38.8919 46.0833L39.9172 45.5482L41.2486 46.8491C43.4523 49.0025 43.7276 48.9765 46.3334 46.3708C48.942 43.7622 48.9693 43.4701 46.8081 41.2783L45.508 39.9597L46.0446 38.9319C46.5864 37.8938 47.2028 36.3278 47.4306 35.4108L47.5545 34.9122H49.4685C52.561 34.9122 52.6489 34.8051 52.6489 31.0406C52.6489 27.2794 52.5586 27.169 49.4834 27.169H47.5843L47.2487 26.0322C47.064 25.4069 46.6029 24.2668 46.2241 23.4984L45.5353 22.1015L46.8241 20.7826C48.9692 18.5874 48.9434 18.3219 46.3327 15.7111C43.71 13.0884 43.4463 13.0631 41.2534 15.224L39.9476 16.511L38.5476 15.8207C37.7776 15.4411 36.6362 14.9768 36.0112 14.7891L34.8748 14.4477V12.5546C34.8748 10.4722 34.8014 10.2229 34.016 9.64037C33.6382 9.36009 28.9147 9.21484 28.305 9.46486ZM33.1372 13.3222C33.1807 15.9799 33.1314 15.8863 34.6803 16.25C35.9584 16.5501 37.6511 17.2475 38.8114 17.952C40.2321 18.8144 40.0414 18.8722 41.9216 17.0092L43.5603 15.3855L45.0817 16.9035L46.6033 18.4216L45.0895 19.9503C43.227 21.8312 43.2341 21.8106 44.0097 23.0947C44.8739 24.5255 45.5901 26.3072 45.8989 27.7945C46.1176 28.8478 46.1589 28.8641 48.7308 28.9087L50.9478 28.9472V31.0498V33.1524H48.7932C46.3758 33.1524 46.1169 33.2303 45.9626 34.0044C45.6481 35.5821 44.7132 37.8768 43.7954 39.3241C43.2674 40.1566 43.2826 40.19 44.9644 41.8885C45.8033 42.7356 46.4896 43.5047 46.4896 43.5976C46.4896 43.7837 43.8047 46.527 43.6226 46.527C43.5601 46.527 42.8463 45.8713 42.0364 45.07C40.2853 43.3373 40.1723 43.2883 39.2405 43.8597C37.7085 44.799 36.0931 45.4778 34.4436 45.8756C33.1636 46.1844 33.1804 46.1473 33.1372 48.768L33.1008 50.9852H31.0032H28.9057L28.8693 48.768C28.8261 46.1473 28.8429 46.1844 27.5629 45.8756C25.9134 45.4778 24.298 44.799 22.766 43.8597C21.8342 43.2883 21.7212 43.3373 19.97 45.07C19.1602 45.8713 18.4464 46.527 18.3839 46.527C18.2018 46.527 15.5169 43.7837 15.5169 43.5976C15.5169 43.5047 16.2032 42.7356 17.0421 41.8885C18.7235 40.1903 18.739 40.1565 18.2118 39.325C17.2956 37.8806 16.4159 35.7717 16.1054 34.2761C15.8806 33.1934 15.7751 33.1524 13.2133 33.1524H11.0587V31.0498V28.9472L13.2757 28.9087C15.8328 28.8643 15.8843 28.8446 16.101 27.832C16.4463 26.2177 17.1042 24.5723 17.9931 23.1009C18.7729 21.8098 18.7806 21.8325 16.917 19.9503L15.4032 18.4216L16.9247 16.9035L18.4462 15.3855L20.0849 17.0092C21.9651 18.8722 21.7744 18.8144 23.1951 17.952C24.3554 17.2475 26.0481 16.5501 27.3262 16.25C28.875 15.8863 28.8258 15.9799 28.8693 13.3222L28.9057 11.0961H31.0032H33.1008L33.1372 13.3222ZM28.1064 19.7842C19.4833 21.974 16.4675 32.8461 22.7292 39.1696C27.9463 44.4383 36.5801 43.6049 40.6846 37.4361C44.6636 31.4561 42.1769 23.0944 35.606 20.3589C33.2779 19.3897 32.1765 19.4389 32.1765 20.5123C32.1765 20.9445 32.6179 21.2551 33.6177 21.5261C40.1516 23.2978 42.9809 31.2137 39.0495 36.7232C35.1014 42.2559 26.9022 42.2518 22.9512 36.715C19.0351 31.2271 21.8647 23.2897 28.3635 21.5324C29.3869 21.2556 29.83 20.9474 29.83 20.5123C29.83 19.7146 29.2856 19.4846 28.1064 19.7842ZM30.2994 23.4846C29.1245 23.9941 24.742 26.6548 24.4521 27.0347L24.14 27.4436L24.1098 30.9139C24.0699 35.5111 23.611 34.7829 28.2163 37.4297C31.156 39.1191 30.8546 39.1224 33.9134 37.3692C37.915 35.0756 37.9252 35.0658 37.9252 33.5175C37.9252 32.7743 37.8971 32.6781 37.616 32.457C36.9006 31.8943 36.1661 32.3769 36.1643 33.4111L36.1632 34.0323L33.7591 35.4219C32.4368 36.1861 31.2508 36.8386 31.1236 36.8719C30.9689 36.9123 30.0567 36.4524 28.3679 35.4824L25.8435 34.0323L25.8423 31.0343L25.8411 28.0364L28.4242 26.5438L31.0072 25.0513L33.5863 26.5435L36.1654 28.0356V28.6636C36.1654 29.7346 36.9837 30.233 37.6494 29.5673C37.9288 29.2879 37.9465 29.2046 37.9079 28.3556C37.8472 27.0172 37.7291 26.8986 34.743 25.1745C31.2461 23.1554 31.1463 23.1175 30.2994 23.4846ZM29.7445 28.4646C27.0785 29.8172 28.0213 33.854 31.0032 33.854C33.8286 33.854 34.8842 30.2833 32.545 28.6393C31.8589 28.157 30.5158 28.0732 29.7445 28.4646ZM31.7711 30.2728C32.4523 30.9538 31.9711 32.0965 31.0032 32.0965C30.3428 32.0965 29.9474 31.701 29.9474 31.0406C29.9474 30.6875 30.0234 30.4846 30.2354 30.2728C30.4473 30.0608 30.6501 29.9847 31.0032 29.9847C31.3564 29.9847 31.5592 30.0608 31.7711 30.2728Z"/></mask><path fill-rule="evenodd" clip-rule="evenodd" d="M28.1875 1.1339C25.3544 1.40491 21.797 2.30512 19.2688 3.3908C18.3808 3.77221 18.1774 4.55005 18.8373 5.04057L19.166 5.28495L19.8932 5.00948C24.1904 3.38142 27.2362 2.7663 31.0004 2.7663C52.0172 2.7663 65.6087 24.884 56.1974 43.7699C55.0865 45.9993 52.6513 49.4707 51.4319 50.5634L51.1824 50.7869V49.1209C51.1824 46.9918 50.6253 46.2522 49.7106 47.167L49.4226 47.4549V50.3188C49.4226 53.0384 49.4348 53.1982 49.6658 53.4917L49.9089 53.8009H52.8716C56.1645 53.8009 56.3446 53.7561 56.3446 52.9374C56.3446 52.1966 55.9568 52.0411 54.1112 52.0411H52.454L53.2361 51.1905C60.1933 43.6256 62.7146 32.6963 59.8208 22.6474C55.868 8.92072 42.4167 -0.227373 28.1875 1.1339ZM6.13122 8.28038C5.78184 8.62977 5.81833 9.25767 6.20572 9.56235C6.48495 9.78209 6.67336 9.80555 8.15712 9.80555H9.79926L8.93202 10.7148C1.96845 18.0147 -0.711163 29.1874 2.10149 39.1944C6.89381 56.245 25.5234 65.4459 42.0745 58.9365C43.8844 58.2247 44.2514 57.7879 43.6653 57.043C43.3286 56.6149 43.0207 56.6454 41.5073 57.2569C25.1242 63.8765 6.47122 53.6352 3.25839 36.2565C1.59959 27.284 4.58728 17.2398 10.636 11.4544L11.0587 11.0501V12.7209C11.0587 14.5689 11.2149 14.9677 11.9386 14.9677C12.1058 14.9677 12.3721 14.838 12.5305 14.6796L12.8185 14.3917V11.5067V8.62167L12.5305 8.33376L12.2426 8.04574H9.30417C6.52225 8.04574 6.35343 8.05818 6.13122 8.28038ZM28.305 9.46486C27.3217 9.86785 27.1317 10.374 27.1317 12.59V14.4477L25.9953 14.7891C25.3703 14.9768 24.2289 15.4411 23.4589 15.8207L22.0589 16.511L20.753 15.224C18.5602 13.0631 18.2965 13.0884 15.6737 15.7111C13.0631 18.3219 13.0373 18.5874 15.1824 20.7826L16.4712 22.1015L15.7824 23.4984C15.4036 24.2668 14.9425 25.4069 14.7578 26.0322L14.4222 27.169H12.5231C9.44788 27.169 9.35755 27.2794 9.35755 31.0406C9.35755 34.8051 9.44554 34.9122 12.538 34.9122H14.452L14.5759 35.4108C14.8037 36.3278 15.4201 37.8938 15.9619 38.9319L16.4985 39.9597L15.1984 41.2783C13.0598 43.4472 13.0828 43.767 15.5575 46.2725C18.2386 48.9871 18.5476 49.017 20.8245 46.7823L22.0845 45.5456L23.1122 46.0801C24.1824 46.6367 25.3069 47.0833 26.4571 47.4087L27.1317 47.5995V49.4742C27.1317 51.5788 27.1938 51.8082 27.9143 52.3576L28.3452 52.6863H31.0149C34.766 52.6863 34.8748 52.5966 34.8748 49.5059V47.5919L35.3734 47.468C36.2897 47.2404 37.8561 46.6239 38.8919 46.0833L39.9172 45.5482L41.2486 46.8491C43.4523 49.0025 43.7276 48.9765 46.3334 46.3708C48.942 43.7622 48.9693 43.4701 46.8081 41.2783L45.508 39.9597L46.0446 38.9319C46.5864 37.8938 47.2028 36.3278 47.4306 35.4108L47.5545 34.9122H49.4685C52.561 34.9122 52.6489 34.8051 52.6489 31.0406C52.6489 27.2794 52.5586 27.169 49.4834 27.169H47.5843L47.2487 26.0322C47.064 25.4069 46.6029 24.2668 46.2241 23.4984L45.5353 22.1015L46.8241 20.7826C48.9692 18.5874 48.9434 18.3219 46.3327 15.7111C43.71 13.0884 43.4463 13.0631 41.2534 15.224L39.9476 16.511L38.5476 15.8207C37.7776 15.4411 36.6362 14.9768 36.0112 14.7891L34.8748 14.4477V12.5546C34.8748 10.4722 34.8014 10.2229 34.016 9.64037C33.6382 9.36009 28.9147 9.21484 28.305 9.46486ZM33.1372 13.3222C33.1807 15.9799 33.1314 15.8863 34.6803 16.25C35.9584 16.5501 37.6511 17.2475 38.8114 17.952C40.2321 18.8144 40.0414 18.8722 41.9216 17.0092L43.5603 15.3855L45.0817 16.9035L46.6033 18.4216L45.0895 19.9503C43.227 21.8312 43.2341 21.8106 44.0097 23.0947C44.8739 24.5255 45.5901 26.3072 45.8989 27.7945C46.1176 28.8478 46.1589 28.8641 48.7308 28.9087L50.9478 28.9472V31.0498V33.1524H48.7932C46.3758 33.1524 46.1169 33.2303 45.9626 34.0044C45.6481 35.5821 44.7132 37.8768 43.7954 39.3241C43.2674 40.1566 43.2826 40.19 44.9644 41.8885C45.8033 42.7356 46.4896 43.5047 46.4896 43.5976C46.4896 43.7837 43.8047 46.527 43.6226 46.527C43.5601 46.527 42.8463 45.8713 42.0364 45.07C40.2853 43.3373 40.1723 43.2883 39.2405 43.8597C37.7085 44.799 36.0931 45.4778 34.4436 45.8756C33.1636 46.1844 33.1804 46.1473 33.1372 48.768L33.1008 50.9852H31.0032H28.9057L28.8693 48.768C28.8261 46.1473 28.8429 46.1844 27.5629 45.8756C25.9134 45.4778 24.298 44.799 22.766 43.8597C21.8342 43.2883 21.7212 43.3373 19.97 45.07C19.1602 45.8713 18.4464 46.527 18.3839 46.527C18.2018 46.527 15.5169 43.7837 15.5169 43.5976C15.5169 43.5047 16.2032 42.7356 17.0421 41.8885C18.7235 40.1903 18.739 40.1565 18.2118 39.325C17.2956 37.8806 16.4159 35.7717 16.1054 34.2761C15.8806 33.1934 15.7751 33.1524 13.2133 33.1524H11.0587V31.0498V28.9472L13.2757 28.9087C15.8328 28.8643 15.8843 28.8446 16.101 27.832C16.4463 26.2177 17.1042 24.5723 17.9931 23.1009C18.7729 21.8098 18.7806 21.8325 16.917 19.9503L15.4032 18.4216L16.9247 16.9035L18.4462 15.3855L20.0849 17.0092C21.9651 18.8722 21.7744 18.8144 23.1951 17.952C24.3554 17.2475 26.0481 16.5501 27.3262 16.25C28.875 15.8863 28.8258 15.9799 28.8693 13.3222L28.9057 11.0961H31.0032H33.1008L33.1372 13.3222ZM28.1064 19.7842C19.4833 21.974 16.4675 32.8461 22.7292 39.1696C27.9463 44.4383 36.5801 43.6049 40.6846 37.4361C44.6636 31.4561 42.1769 23.0944 35.606 20.3589C33.2779 19.3897 32.1765 19.4389 32.1765 20.5123C32.1765 20.9445 32.6179 21.2551 33.6177 21.5261C40.1516 23.2978 42.9809 31.2137 39.0495 36.7232C35.1014 42.2559 26.9022 42.2518 22.9512 36.715C19.0351 31.2271 21.8647 23.2897 28.3635 21.5324C29.3869 21.2556 29.83 20.9474 29.83 20.5123C29.83 19.7146 29.2856 19.4846 28.1064 19.7842ZM30.2994 23.4846C29.1245 23.9941 24.742 26.6548 24.4521 27.0347L24.14 27.4436L24.1098 30.9139C24.0699 35.5111 23.611 34.7829 28.2163 37.4297C31.156 39.1191 30.8546 39.1224 33.9134 37.3692C37.915 35.0756 37.9252 35.0658 37.9252 33.5175C37.9252 32.7743 37.8971 32.6781 37.616 32.457C36.9006 31.8943 36.1661 32.3769 36.1643 33.4111L36.1632 34.0323L33.7591 35.4219C32.4368 36.1861 31.2508 36.8386 31.1236 36.8719C30.9689 36.9123 30.0567 36.4524 28.3679 35.4824L25.8435 34.0323L25.8423 31.0343L25.8411 28.0364L28.4242 26.5438L31.0072 25.0513L33.5863 26.5435L36.1654 28.0356V28.6636C36.1654 29.7346 36.9837 30.233 37.6494 29.5673C37.9288 29.2879 37.9465 29.2046 37.9079 28.3556C37.8472 27.0172 37.7291 26.8986 34.743 25.1745C31.2461 23.1554 31.1463 23.1175 30.2994 23.4846ZM29.7445 28.4646C27.0785 29.8172 28.0213 33.854 31.0032 33.854C33.8286 33.854 34.8842 30.2833 32.545 28.6393C31.8589 28.157 30.5158 28.0732 29.7445 28.4646ZM31.7711 30.2728C32.4523 30.9538 31.9711 32.0965 31.0032 32.0965C30.3428 32.0965 29.9474 31.701 29.9474 31.0406C29.9474 30.6875 30.0234 30.4846 30.2354 30.2728C30.4473 30.0608 30.6501 29.9847 31.0032 29.9847C31.3564 29.9847 31.5592 30.0608 31.7711 30.2728Z" fill="#000"/><path clip-rule="evenodd" d="M28.1875 1.1339C25.3544 1.40491 21.797 2.30512 19.2688 3.3908C18.3808 3.77221 18.1774 4.55005 18.8373 5.04057L19.166 5.28495L19.8932 5.00948C24.1904 3.38142 27.2362 2.7663 31.0004 2.7663C52.0172 2.7663 65.6087 24.884 56.1974 43.7699C55.0865 45.9993 52.6513 49.4707 51.4319 50.5634L51.1824 50.7869V49.1209C51.1824 46.9918 50.6253 46.2522 49.7106 47.167L49.4226 47.4549V50.3188C49.4226 53.0384 49.4348 53.1982 49.6658 53.4917L49.9089 53.8009H52.8716C56.1645 53.8009 56.3446 53.7561 56.3446 52.9374C56.3446 52.1966 55.9568 52.0411 54.1112 52.0411H52.454L53.2361 51.1905C60.1933 43.6256 62.7146 32.6963 59.8208 22.6474C55.868 8.92072 42.4167 -0.227373 28.1875 1.1339ZM6.13122 8.28038C5.78184 8.62977 5.81833 9.25767 6.20572 9.56235C6.48495 9.78209 6.67336 9.80555 8.15712 9.80555H9.79926L8.93202 10.7148C1.96845 18.0147 -0.711163 29.1874 2.10149 39.1944C6.89381 56.245 25.5234 65.4459 42.0745 58.9365C43.8844 58.2247 44.2514 57.7879 43.6653 57.043C43.3286 56.6149 43.0207 56.6454 41.5073 57.2569C25.1242 63.8765 6.47122 53.6352 3.25839 36.2565C1.59959 27.284 4.58728 17.2398 10.636 11.4544L11.0587 11.0501V12.7209C11.0587 14.5689 11.2149 14.9677 11.9386 14.9677C12.1058 14.9677 12.3721 14.838 12.5305 14.6796L12.8185 14.3917V11.5067V8.62167L12.5305 8.33376L12.2426 8.04574H9.30417C6.52225 8.04574 6.35343 8.05818 6.13122 8.28038ZM28.305 9.46486C27.3217 9.86785 27.1317 10.374 27.1317 12.59V14.4477L25.9953 14.7891C25.3703 14.9768 24.2289 15.4411 23.4589 15.8207L22.0589 16.511L20.753 15.224C18.5602 13.0631 18.2965 13.0884 15.6737 15.7111C13.0631 18.3219 13.0373 18.5874 15.1824 20.7826L16.4712 22.1015L15.7824 23.4984C15.4036 24.2668 14.9425 25.4069 14.7578 26.0322L14.4222 27.169H12.5231C9.44788 27.169 9.35755 27.2794 9.35755 31.0406C9.35755 34.8051 9.44554 34.9122 12.538 34.9122H14.452L14.5759 35.4108C14.8037 36.3278 15.4201 37.8938 15.9619 38.9319L16.4985 39.9597L15.1984 41.2783C13.0598 43.4472 13.0828 43.767 15.5575 46.2725C18.2386 48.9871 18.5476 49.017 20.8245 46.7823L22.0845 45.5456L23.1122 46.0801C24.1824 46.6367 25.3069 47.0833 26.4571 47.4087L27.1317 47.5995V49.4742C27.1317 51.5788 27.1938 51.8082 27.9143 52.3576L28.3452 52.6863H31.0149C34.766 52.6863 34.8748 52.5966 34.8748 49.5059V47.5919L35.3734 47.468C36.2897 47.2404 37.8561 46.6239 38.8919 46.0833L39.9172 45.5482L41.2486 46.8491C43.4523 49.0025 43.7276 48.9765 46.3334 46.3708C48.942 43.7622 48.9693 43.4701 46.8081 41.2783L45.508 39.9597L46.0446 38.9319C46.5864 37.8938 47.2028 36.3278 47.4306 35.4108L47.5545 34.9122H49.4685C52.561 34.9122 52.6489 34.8051 52.6489 31.0406C52.6489 27.2794 52.5586 27.169 49.4834 27.169H47.5843L47.2487 26.0322C47.064 25.4069 46.6029 24.2668 46.2241 23.4984L45.5353 22.1015L46.8241 20.7826C48.9692 18.5874 48.9434 18.3219 46.3327 15.7111C43.71 13.0884 43.4463 13.0631 41.2534 15.224L39.9476 16.511L38.5476 15.8207C37.7776 15.4411 36.6362 14.9768 36.0112 14.7891L34.8748 14.4477V12.5546C34.8748 10.4722 34.8014 10.2229 34.016 9.64037C33.6382 9.36009 28.9147 9.21484 28.305 9.46486ZM33.1372 13.3222C33.1807 15.9799 33.1314 15.8863 34.6803 16.25C35.9584 16.5501 37.6511 17.2475 38.8114 17.952C40.2321 18.8144 40.0414 18.8722 41.9216 17.0092L43.5603 15.3855L45.0817 16.9035L46.6033 18.4216L45.0895 19.9503C43.227 21.8312 43.2341 21.8106 44.0097 23.0947C44.8739 24.5255 45.5901 26.3072 45.8989 27.7945C46.1176 28.8478 46.1589 28.8641 48.7308 28.9087L50.9478 28.9472V31.0498V33.1524H48.7932C46.3758 33.1524 46.1169 33.2303 45.9626 34.0044C45.6481 35.5821 44.7132 37.8768 43.7954 39.3241C43.2674 40.1566 43.2826 40.19 44.9644 41.8885C45.8033 42.7356 46.4896 43.5047 46.4896 43.5976C46.4896 43.7837 43.8047 46.527 43.6226 46.527C43.5601 46.527 42.8463 45.8713 42.0364 45.07C40.2853 43.3373 40.1723 43.2883 39.2405 43.8597C37.7085 44.799 36.0931 45.4778 34.4436 45.8756C33.1636 46.1844 33.1804 46.1473 33.1372 48.768L33.1008 50.9852H31.0032H28.9057L28.8693 48.768C28.8261 46.1473 28.8429 46.1844 27.5629 45.8756C25.9134 45.4778 24.298 44.799 22.766 43.8597C21.8342 43.2883 21.7212 43.3373 19.97 45.07C19.1602 45.8713 18.4464 46.527 18.3839 46.527C18.2018 46.527 15.5169 43.7837 15.5169 43.5976C15.5169 43.5047 16.2032 42.7356 17.0421 41.8885C18.7235 40.1903 18.739 40.1565 18.2118 39.325C17.2956 37.8806 16.4159 35.7717 16.1054 34.2761C15.8806 33.1934 15.7751 33.1524 13.2133 33.1524H11.0587V31.0498V28.9472L13.2757 28.9087C15.8328 28.8643 15.8843 28.8446 16.101 27.832C16.4463 26.2177 17.1042 24.5723 17.9931 23.1009C18.7729 21.8098 18.7806 21.8325 16.917 19.9503L15.4032 18.4216L16.9247 16.9035L18.4462 15.3855L20.0849 17.0092C21.9651 18.8722 21.7744 18.8144 23.1951 17.952C24.3554 17.2475 26.0481 16.5501 27.3262 16.25C28.875 15.8863 28.8258 15.9799 28.8693 13.3222L28.9057 11.0961H31.0032H33.1008L33.1372 13.3222ZM28.1064 19.7842C19.4833 21.974 16.4675 32.8461 22.7292 39.1696C27.9463 44.4383 36.5801 43.6049 40.6846 37.4361C44.6636 31.4561 42.1769 23.0944 35.606 20.3589C33.2779 19.3897 32.1765 19.4389 32.1765 20.5123C32.1765 20.9445 32.6179 21.2551 33.6177 21.5261C40.1516 23.2978 42.9809 31.2137 39.0495 36.7232C35.1014 42.2559 26.9022 42.2518 22.9512 36.715C19.0351 31.2271 21.8647 23.2897 28.3635 21.5324C29.3869 21.2556 29.83 20.9474 29.83 20.5123C29.83 19.7146 29.2856 19.4846 28.1064 19.7842ZM30.2994 23.4846C29.1245 23.9941 24.742 26.6548 24.4521 27.0347L24.14 27.4436L24.1098 30.9139C24.0699 35.5111 23.611 34.7829 28.2163 37.4297C31.156 39.1191 30.8546 39.1224 33.9134 37.3692C37.915 35.0756 37.9252 35.0658 37.9252 33.5175C37.9252 32.7743 37.8971 32.6781 37.616 32.457C36.9006 31.8943 36.1661 32.3769 36.1643 33.4111L36.1632 34.0323L33.7591 35.4219C32.4368 36.1861 31.2508 36.8386 31.1236 36.8719C30.9689 36.9123 30.0567 36.4524 28.3679 35.4824L25.8435 34.0323L25.8423 31.0343L25.8411 28.0364L28.4242 26.5438L31.0072 25.0513L33.5863 26.5435L36.1654 28.0356V28.6636C36.1654 29.7346 36.9837 30.233 37.6494 29.5673C37.9288 29.2879 37.9465 29.2046 37.9079 28.3556C37.8472 27.0172 37.7291 26.8986 34.743 25.1745C31.2461 23.1554 31.1463 23.1175 30.2994 23.4846ZM29.7445 28.4646C27.0785 29.8172 28.0213 33.854 31.0032 33.854C33.8286 33.854 34.8842 30.2833 32.545 28.6393C31.8589 28.157 30.5158 28.0732 29.7445 28.4646ZM31.7711 30.2728C32.4523 30.9538 31.9711 32.0965 31.0032 32.0965C30.3428 32.0965 29.9474 31.701 29.9474 31.0406C29.9474 30.6875 30.0234 30.4846 30.2354 30.2728C30.4473 30.0608 30.6501 29.9847 31.0032 29.9847C31.3564 29.9847 31.5592 30.0608 31.7711 30.2728Z" stroke="#000" stroke-width=".4" mask="url(#path-1-outside-1_65_2865)"/></svg>