<svg width="62" height="61" viewBox="0 0 62 61" fill="none" xmlns="http://www.w3.org/2000/svg"><path d="M31.244 5.52531L31.244 5.52529C31.1684 5.32592 31.0918 5.14564 31.0298 5.01612C31.0149 4.98496 31.001 4.95722 30.9884 4.93316C30.9766 4.95682 30.9636 4.98401 30.9497 5.01449C30.8905 5.14393 30.818 5.32415 30.7467 5.52349C30.257 6.89263 29.2853 8.70754 28.3407 10.1789C27.8682 10.9149 27.4005 11.568 27.001 12.0382C26.8015 12.273 26.6168 12.4648 26.4554 12.5987C26.3747 12.6657 26.2976 12.7201 26.2255 12.7581C26.1545 12.7956 26.0812 12.821 26.01 12.821C25.7329 12.821 25.5078 12.7647 25.3528 12.6358C25.1935 12.5034 25.1256 12.3094 25.1336 12.0756C25.1416 11.8448 25.2231 11.5676 25.3695 11.2489C25.5164 10.9291 25.7317 10.561 26.014 10.1469C27.8274 7.48627 29.0065 5.02153 29.5715 2.72012C29.6817 2.27126 29.7757 1.94713 29.8705 1.70937C29.9655 1.4713 30.0641 1.31223 30.1875 1.20007C30.1875 1.20006 30.1875 1.20006 30.1875 1.20006M31.244 5.52531L32.1165 1.90807C31.934 1.0675 30.8777 0.707871 30.2547 1.27407L30.1875 1.20006M31.244 5.52531C32.1229 7.84058 33.8596 10.6802 36.8926 14.7713C39.2311 17.9256 40.6413 20.0095 41.4691 21.7353C42.2943 23.4556 42.5408 24.8206 42.546 26.5396C42.5664 33.2917 37.7548 37.2805 32.484 37.9507C27.2129 38.6208 21.4988 35.9698 19.7163 29.4405C18.6728 25.618 19.7491 22.122 23.6891 16.706C23.9304 16.3743 24.119 16.0955 24.2564 15.8568C24.3933 15.6188 24.4825 15.4155 24.5204 15.2354C24.5588 15.0527 24.5448 14.892 24.4742 14.745C24.4049 14.6006 24.2856 14.479 24.1314 14.3644C23.9586 14.2359 23.7844 14.1492 23.5843 14.1673C23.3871 14.1852 23.1893 14.3029 22.9617 14.5203C22.5075 14.954 21.8765 15.8434 20.8274 17.408C18.5139 20.8581 17.3711 24.1608 17.4102 27.2459C17.4494 30.333 18.672 33.1911 21.0685 35.749C29.3263 44.5632 44.1053 39.0927 44.5362 27.0583C44.6083 25.0459 44.3427 23.369 43.4317 21.3516C42.5229 19.339 40.9723 16.9889 38.4804 13.6277C34.355 8.06316 33.0043 5.52545 32.2142 1.88685C32.0165 0.975897 30.8711 0.578783 30.1875 1.20006M31.244 5.52531L30.1875 1.20006M1.45817 51.5824L1.42814 51.5443L1.18552 51.2357L1.1855 51.2357L1.26411 51.1739L1.45817 51.5824ZM1.45817 51.5824H1.50675M1.45817 51.5824H1.50675M1.50675 51.5824H31H60.4932H60.5418M1.50675 51.5824H60.5418M60.5418 51.5824L60.5719 51.5443M60.5418 51.5824L60.5719 51.5443M60.5719 51.5443L60.8145 51.2357C60.8663 51.1698 60.9045 51.0645 60.935 50.9461C60.9665 50.8235 60.9933 50.6721 61.0156 50.5022C61.0602 50.1622 61.0876 49.7403 61.0967 49.3108C61.1057 48.8813 61.0964 48.4419 61.067 48.0666C61.0379 47.6957 60.9884 47.3743 60.9112 47.1896C60.9025 47.1689 60.894 47.1484 60.8856 47.1281C60.7682 46.8454 60.6675 46.6026 60.4352 46.4199C60.1874 46.225 59.8031 46.1065 59.1262 46.0294C57.8119 45.8796 55.3144 45.8795 50.3425 45.8793L49.8631 45.8793L41.1063 45.8786L42.4715 45.2011C48.3261 42.2959 52.8004 37.4617 55.2658 31.3781L55.3793 31.0981L55.4968 31.4378L55.5853 31.4071L55.4968 31.4378C55.7354 32.1276 55.9824 32.5915 56.2713 32.8144C56.4203 32.9294 56.5824 32.9818 56.7569 32.9657C56.9281 32.9499 57.1006 32.8692 57.2757 32.739C57.4025 32.6449 57.5056 32.543 57.5671 32.4018C57.6283 32.2612 57.6429 32.094 57.6179 31.8786C57.5686 31.4533 57.3586 30.7959 56.9699 29.6868C56.9342 29.5848 56.8998 29.4862 56.8665 29.391C56.6532 28.7799 56.4874 28.3049 56.3295 27.9539C56.1485 27.5515 55.9664 27.2837 55.7075 27.1675C55.4466 27.0505 55.1378 27.1003 54.7424 27.2452C54.3983 27.3714 53.9663 27.5788 53.4116 27.845C53.3251 27.8866 53.2356 27.9296 53.1429 27.9739C52.1481 28.4498 51.5723 28.7402 51.2455 28.9698C51.081 29.0854 50.9712 29.1912 50.9032 29.3048C50.8337 29.421 50.8133 29.5366 50.8115 29.6608C50.8075 29.9296 50.8524 30.1532 50.9601 30.3199C51.0705 30.4908 51.2392 30.5901 51.4551 30.622C51.6669 30.6533 51.9244 30.62 52.2238 30.5316C52.5245 30.4428 52.8744 30.2962 53.274 30.0937C53.4572 30.0009 53.5838 29.9387 53.6673 29.9127C53.6793 29.909 53.6891 29.9065 53.6969 29.9048C53.6957 29.9192 53.6927 29.9396 53.6864 29.9672C53.6746 30.0194 53.6535 30.0877 53.6223 30.1752C53.5599 30.3502 53.4612 30.5909 53.3273 30.9142L53.4181 30.9518L53.3273 30.9142C45.0968 50.7969 16.8444 50.805 8.67561 30.9286L8.58312 30.9666L8.67561 30.9286C8.54105 30.6012 8.44172 30.3575 8.37887 30.1804C8.34745 30.0918 8.32616 30.0227 8.31414 29.9697C8.30757 29.9408 8.30451 29.9196 8.30333 29.9047C8.31106 29.9064 8.32072 29.9089 8.33258 29.9126C8.41597 29.9384 8.54257 30.0008 8.72598 30.0937L8.77119 30.0045L8.72599 30.0937C9.40031 30.4354 9.92025 30.6224 10.3077 30.6398C10.5039 30.6487 10.673 30.6144 10.8114 30.5285C10.9505 30.4421 11.0484 30.3098 11.1129 30.1415C11.1859 29.9515 11.2332 29.7785 11.2138 29.6109C11.1939 29.438 11.1053 29.2867 10.942 29.1348C10.7808 28.9849 10.5406 28.8285 10.2048 28.6437C9.86789 28.4583 9.42841 28.241 8.86456 27.9705C7.80107 27.4604 7.22237 27.1896 6.85787 27.0984C6.67165 27.0518 6.52825 27.0482 6.39896 27.0917C6.2725 27.1343 6.17232 27.2181 6.06743 27.3147C6.03567 27.344 6.00406 27.3872 5.97348 27.4353C5.94187 27.4851 5.9074 27.5467 5.87076 27.6175C5.79744 27.7592 5.71302 27.9426 5.62255 28.1534C5.4415 28.5753 5.23408 29.1115 5.03969 29.6522C4.84529 30.1928 4.66337 30.7395 4.53353 31.1823C4.46865 31.4035 4.4164 31.6001 4.38211 31.7577C4.36498 31.8364 4.35206 31.9066 4.34437 31.966C4.33689 32.0237 4.33345 32.0775 4.33856 32.1206C4.40042 32.6425 4.95959 33.0192 5.48142 32.9045C5.71264 32.8537 5.90132 32.7065 6.06526 32.4591C6.22757 32.2142 6.37017 31.8646 6.51052 31.3947C6.54981 31.2632 6.57757 31.1719 6.60217 31.1154C6.61243 31.1303 6.62454 31.1495 6.63862 31.1741C6.66794 31.2254 6.70247 31.2938 6.74392 31.382C6.82683 31.5586 6.93398 31.807 7.07807 32.1413L7.16991 32.1017L7.07808 32.1413C9.55715 37.8918 14.0189 42.5261 19.7707 45.3261L20.9051 45.8784L60.5719 51.5443ZM26.6497 53.1045C26.451 53.3032 26.3875 53.6479 26.3982 54.02M26.6497 53.1045L26.3982 54.02M26.6497 53.1045L26.7204 53.1752L26.3982 54.02M26.6497 53.1045C26.8322 52.922 27.0143 52.8016 27.1978 52.7621C27.3871 52.7214 27.5647 52.7697 27.7253 52.897C27.8821 53.0214 28.0227 53.2205 28.1523 53.4847C28.2824 53.7502 28.4048 54.0887 28.5217 54.4996C28.6391 54.9126 28.7197 55.262 28.7606 55.5541C28.8014 55.8451 28.8037 56.0857 28.7596 56.2782C28.7147 56.4737 28.6209 56.6225 28.471 56.7195C28.3244 56.8144 28.1358 56.8521 27.915 56.8521C27.7755 56.8521 27.6422 56.7955 27.5203 56.7068C27.3984 56.618 27.2827 56.4932 27.1757 56.3465C26.9616 56.053 26.7732 55.6587 26.6357 55.2469C26.4981 54.8348 26.4092 54.3988 26.3982 54.02M38.4842 25.6536L38.5257 25.7395L38.4842 25.6536C38.2948 25.7451 38.1669 25.9212 38.076 26.1933C37.9857 26.4636 37.9271 26.8424 37.8848 27.3611C37.6348 30.4258 34.8156 33.1532 31.5995 33.4282C31.0716 33.4733 30.6929 33.5577 30.4452 33.7181C30.3187 33.8 30.2257 33.9021 30.1653 34.0277C30.1053 34.1523 30.0803 34.2942 30.0803 34.4523C30.0803 34.7305 30.1727 34.9546 30.3449 35.1205C30.5147 35.2839 30.7536 35.3827 31.0336 35.4304C31.5921 35.5256 32.3479 35.4237 33.1624 35.1764C34.7931 34.6813 36.7097 33.5878 37.8489 32.2113C38.9754 30.8501 39.6774 28.9863 39.8432 27.5819C39.9256 26.8837 39.8782 26.2773 39.6634 25.9038C39.5537 25.7129 39.3971 25.5779 39.1901 25.5304C38.986 25.4836 38.7492 25.5257 38.4842 25.6536ZM31.049 47.8642L59.067 47.8936L59.0976 48.7633L59.128 49.6259H31.0047H2.87792V48.8086C2.87792 48.5583 2.88667 48.3228 2.90062 48.1455C2.90762 48.0566 2.91579 47.9841 2.92447 47.9322C2.92598 47.9232 2.92747 47.915 2.92892 47.9077C2.951 47.9068 2.97888 47.906 3.01265 47.9051C3.11103 47.9026 3.25654 47.9002 3.44705 47.8978C3.82792 47.8932 4.38716 47.8888 5.10563 47.8849C6.54249 47.877 8.61544 47.8707 11.1704 47.8663C16.2802 47.8574 23.3175 47.856 31.049 47.8642ZM8.072 54.4633L7.97582 54.4906L8.072 54.4633C7.8637 53.7309 7.63724 53.2326 7.35594 52.9742C7.21155 52.8416 7.05034 52.7699 6.87118 52.7651C6.6947 52.7605 6.51187 52.821 6.32214 52.9314L6.37077 53.0149L6.32214 52.9314C6.21633 52.9929 6.14722 53.1048 6.1019 53.2324C6.05599 53.3616 6.02974 53.5202 6.01861 53.6943C5.99633 54.0431 6.03374 54.4721 6.11292 54.8953C6.19214 55.3187 6.31426 55.7422 6.46454 56.0797C6.53965 56.2483 6.62303 56.3984 6.71355 56.5168C6.80309 56.634 6.90567 56.7283 7.02166 56.7728C7.3011 56.88 7.54802 56.9132 7.75275 56.8587C7.96314 56.8028 8.11376 56.6584 8.20293 56.4459C8.2904 56.2374 8.31951 55.963 8.29712 55.6343C8.27464 55.3044 8.19967 54.9122 8.072 54.4633ZM14.7043 53.8223L14.6085 53.8473L14.7043 53.8223C14.581 53.3502 14.3192 53.0056 14.0009 52.8541C13.6763 52.6996 13.3091 52.7545 13.0124 53.0512C12.915 53.1485 12.8542 53.2846 12.8189 53.4377C12.7834 53.5916 12.7719 53.77 12.7789 53.9607C12.793 54.3421 12.8818 54.7852 13.0163 55.2056C13.1508 55.6258 13.333 56.0295 13.5378 56.3304C13.6401 56.4808 13.7504 56.6091 13.8663 56.7006C13.9817 56.7919 14.1097 56.8521 14.2449 56.8521C14.4418 56.8521 14.614 56.8026 14.7541 56.7041C14.8943 56.6056 14.9957 56.463 15.0592 56.288C15.185 55.9414 15.1649 55.4615 15.0026 54.9012C14.9107 54.5842 14.7764 54.0985 14.7043 53.8223ZM42.1524 54.5009L42.0559 54.5271L42.1524 54.5009C41.9489 53.754 41.7243 53.2452 41.4425 52.9804C41.2979 52.8445 41.1357 52.7704 40.9547 52.7645C40.7765 52.7588 40.5915 52.8196 40.3994 52.9314C40.2936 52.9929 40.2245 53.1048 40.1792 53.2324C40.1333 53.3616 40.107 53.5202 40.0959 53.6943C40.0736 54.0431 40.111 54.4721 40.1902 54.8953C40.2694 55.3187 40.3915 55.7422 40.5418 56.0797C40.6169 56.2483 40.7003 56.3984 40.7908 56.5168C40.8804 56.634 40.983 56.7283 41.0989 56.7728C41.3762 56.8792 41.6207 56.9146 41.8234 56.8645C42.0323 56.8127 42.1823 56.6737 42.2715 56.4654C42.3587 56.2617 42.3881 55.9919 42.3674 55.667C42.3467 55.3406 42.2749 54.9506 42.1524 54.5009ZM48.7816 53.8223L48.6848 53.8476L48.7816 53.8223C48.6583 53.3502 48.3964 53.0056 48.0782 52.8541C47.7536 52.6996 47.3864 52.7545 47.0897 53.0512C46.9124 53.2285 46.8322 53.4484 46.8401 53.7749C46.8478 54.0947 46.94 54.5263 47.1122 55.1397C47.2958 55.7935 47.3952 56.143 47.4927 56.3457C47.5434 56.451 47.5966 56.5239 47.6657 56.5811C47.7323 56.6363 47.8086 56.6722 47.892 56.7102C48.142 56.8241 48.3723 56.8629 48.5722 56.8242C48.7748 56.785 48.9357 56.6678 49.0455 56.4912C49.2603 56.1456 49.2765 55.5798 49.0798 54.9012C48.988 54.5842 48.8537 54.0985 48.7816 53.8223ZM60.5743 58.0892L60.5446 58.0574H60.5011H31H1.49891H1.45539L1.42573 58.0892L1.18697 58.3455C1.18697 58.3455 1.18696 58.3456 1.18696 58.3456C0.946073 58.6041 0.873864 58.9238 0.956927 59.215C1.03962 59.5048 1.27245 59.7544 1.61783 59.8857C1.63424 59.892 1.65298 59.8943 1.66187 59.8954C1.6747 59.8971 1.69046 59.8985 1.70848 59.8998C1.74471 59.9025 1.79414 59.9051 1.85578 59.9076C1.97929 59.9127 2.15508 59.9175 2.37928 59.9222C2.82786 59.9315 3.47234 59.9401 4.28451 59.9481C5.90893 59.964 8.20537 59.9773 10.9497 59.988C16.4384 60.0092 23.7192 60.0199 31 60.0199C38.2808 60.0199 45.5616 60.0092 51.0503 59.988C53.7946 59.9773 56.0911 59.964 57.7155 59.9481C58.5277 59.9401 59.1721 59.9315 59.6207 59.9222C59.8449 59.9175 60.0207 59.9127 60.1442 59.9076C60.2059 59.9051 60.2553 59.9025 60.2915 59.8998C60.2987 59.8993 60.3055 59.8988 60.3119 59.8982C60.3216 59.8973 60.3304 59.8964 60.3381 59.8954C60.347 59.8943 60.3658 59.892 60.3822 59.8857C60.7276 59.7544 60.9604 59.5048 61.0431 59.215C61.1261 58.9238 61.0539 58.6041 60.813 58.3455L60.5743 58.0892ZM19.8226 53.0902C19.728 53.1909 19.6682 53.3282 19.6332 53.4822C19.5981 53.6368 19.5864 53.8149 19.5929 54.0047C19.6061 54.3841 19.6927 54.8217 19.8249 55.2356C19.957 55.6494 20.1367 56.0458 20.3396 56.341C20.441 56.4885 20.5506 56.6142 20.666 56.704C20.7811 56.7935 20.9086 56.8521 21.0431 56.8521C21.2751 56.8521 21.4722 56.8185 21.6261 56.731C21.7844 56.641 21.8869 56.4999 21.938 56.3084C21.988 56.1211 21.9891 55.8856 21.9513 55.5987C21.9133 55.3107 21.8351 54.9634 21.7203 54.5489C21.6025 54.1234 21.4774 53.7716 21.3441 53.4948C21.2113 53.2192 21.0671 53.0109 20.9075 52.8801C20.7443 52.7464 20.5635 52.6928 20.3712 52.7338C20.1848 52.7734 20.0023 52.8989 19.8226 53.0902ZM33.4418 53.1045C33.3525 53.1937 33.2751 53.2753 33.2235 53.371C33.1697 53.4708 33.1472 53.5793 33.1518 53.719C33.1564 53.8555 33.187 54.0252 33.2412 54.2504C33.2956 54.4765 33.3753 54.7647 33.4806 55.1397C33.5959 55.5505 33.7173 55.8891 33.8467 56.1548C33.9756 56.4192 34.116 56.6186 34.2728 56.7431C34.4335 56.8707 34.6113 56.9191 34.801 56.8784C34.9847 56.8389 35.1673 56.7183 35.3503 56.5353C35.4441 56.4415 35.5218 56.3509 35.5735 56.2429C35.6262 56.1331 35.6486 56.0126 35.6444 55.8632C35.6363 55.5731 35.5263 55.1521 35.3201 54.4438C35.2049 54.0481 35.0822 53.7211 34.9509 53.4641C34.82 53.2082 34.6772 53.015 34.5183 52.8947C34.3559 52.7717 34.1773 52.7256 33.9883 52.7659C33.8044 52.8051 33.6225 52.9237 33.4418 53.1045ZM53.8999 53.0902C53.8053 53.1909 53.7455 53.3282 53.7105 53.4822C53.6753 53.6368 53.6637 53.8149 53.6702 54.0047C53.6833 54.3841 53.77 54.8217 53.9022 55.2356C54.0343 55.6494 54.214 56.0458 54.4169 56.341C54.5183 56.4885 54.6279 56.6142 54.7433 56.704C54.8584 56.7935 54.9858 56.8521 55.1204 56.8521C55.3504 56.8521 55.546 56.8187 55.6991 56.7323C55.8566 56.6435 55.9592 56.5042 56.0112 56.3153C56.0621 56.1304 56.0646 55.8983 56.0289 55.6162C55.993 55.333 55.9174 54.9918 55.8059 54.5851C55.6881 54.1557 55.5625 53.7999 55.4283 53.5192C55.2946 53.2397 55.1494 53.0279 54.989 52.8937C54.8254 52.7569 54.6438 52.6996 54.4504 52.7378C54.2627 52.7749 54.0794 52.8991 53.8999 53.0902Z" fill="#000" stroke="#000" stroke-width=".2"/></svg>