<svg width="60" height="60" viewBox="0 0 60 60" fill="none" xmlns="http://www.w3.org/2000/svg"><path fill-rule="evenodd" clip-rule="evenodd" d="M27.136 0.134209C6.19953 2.30983 -6.12268 24.392 3.10395 43.2009C12.1662 61.6748 36.8422 65.7513 51.2456 51.154C65.2125 36.9989 62.0401 13.8356 44.7745 3.90632C39.6854 0.979748 32.921 -0.466952 27.136 0.134209ZM33.9838 2.29248C56.7535 5.62377 66.023 33.5143 49.7643 49.773C36.1539 63.3834 13.2927 59.5602 4.85961 42.2633C-3.81626 24.4685 7.90491 4.07088 27.9551 2.07143C28.9076 1.97637 32.7989 2.11913 33.9838 2.29248ZM26.783 5.22948C7.83728 7.70879 -1.42943 29.7821 10.0645 45.0529C22.0814 61.0186 47.3562 56.9342 53.6855 38.0039C59.5338 20.5121 45.0292 2.8416 26.783 5.22948ZM32.6435 7.16482L33.6983 7.28672L34.3575 7.97227C36.8726 10.5884 36.401 14.9071 33.378 16.9429C32.8418 17.304 32.7741 17.3206 32.3142 17.2038C31.6775 17.0422 28.335 17.0422 27.6983 17.2038C26.5854 17.4863 24.7448 15.5241 24.199 13.4733C23.4725 10.7439 25.0482 7.42995 27.1933 7.17643C28.4483 7.02804 31.4055 7.02171 32.6435 7.16482ZM22.8189 8.52573C21.4223 11.2289 21.945 14.9959 24.0331 17.2745C24.4337 17.7117 24.7416 18.0869 24.7174 18.1083C24.6931 18.1296 24.4887 18.2402 24.2631 18.3537C24.0374 18.4673 23.5039 18.785 23.0774 19.0593L22.3019 19.5584L22.1023 18.8384C21.2556 15.7843 18.4693 13.4348 15.2645 13.0721L14.5492 12.9912L15.1574 12.4659C17.028 10.8501 19.949 9.16662 22.3291 8.33268C23.0244 8.08913 23.0411 8.09569 22.8189 8.52573ZM39.3577 9.01437C41.7639 10.0651 46.059 13.0198 45.1802 13.0198C42.1053 13.0198 38.7886 15.6812 37.9056 18.8569L37.7106 19.5584L36.9351 19.0593C36.5086 18.785 35.9751 18.4673 35.7495 18.3537C35.5238 18.2402 35.3194 18.1296 35.2952 18.1083C35.2709 18.0869 35.5788 17.7117 35.9794 17.2745C38.0614 15.0024 38.5899 11.2283 37.2023 8.54249C37.1124 8.36832 37.0388 8.19977 37.0388 8.16789C37.0388 8.08033 38.135 8.48048 39.3577 9.01437ZM15.8132 15.1929C19.1301 15.9747 21.4299 19.8828 19.814 21.9913C19.0123 23.0373 18.3262 24.2201 17.9335 25.2337C16.9989 27.6461 12.2658 27.5756 10.0558 25.1164C8.05189 22.8868 8.18715 21.4111 10.756 17.4737C12.0516 15.4879 12.19 15.3693 13.5385 15.0884C14.0657 14.9786 15.107 15.0264 15.8132 15.1929ZM47.2359 15.2561C48.2675 15.6092 51.2095 20.2158 51.4238 21.8138C51.665 23.6125 49.4606 26.1922 47.1732 26.7879C45.3418 27.265 42.4857 26.6397 42.2621 25.7128C42.0936 25.0137 41.1277 23.2263 40.3903 22.2487C39.523 21.0988 39.4842 20.9248 39.7978 19.5944C40.5572 16.3726 44.2335 14.2285 47.2359 15.2561ZM31.4922 19.1216C39.4625 20.2009 43.6182 29.4144 39.1469 36.0925C33.4422 44.6122 20.2795 41.384 19.0813 31.1713C18.2622 24.1909 24.464 18.1698 31.4922 19.1216ZM28.424 21.1615C21.1962 22.4855 18.4955 31.5496 23.8394 36.5487C29.2323 41.5935 37.9534 38.4276 38.9331 31.0695C39.7153 25.1943 34.2969 20.0856 28.424 21.1615ZM31.8941 23.2882C37.0241 24.7957 38.688 31.1811 34.9302 34.9389C31.1717 38.6974 24.7121 37.0066 23.2837 31.8904C21.8317 26.6897 26.7499 21.7763 31.8941 23.2882ZM9.20252 27.0552C10.9734 28.6336 13.9635 29.3708 16.2154 28.7843C16.5866 28.6876 16.9274 28.6085 16.9726 28.6085C17.0177 28.6085 17.0548 29.2414 17.0548 30.015C17.0548 30.7886 17.0284 31.4196 16.9962 31.4173C16.9639 31.4151 16.6211 31.3368 16.2343 31.2434C13.2422 30.5209 9.85889 31.7622 8.02294 34.2562L7.53031 34.9255L7.40138 34.2576C6.91087 31.7179 6.91134 28.3439 7.40279 25.7724L7.53031 25.1046L8.02294 25.7738C8.29392 26.1419 8.82476 26.7185 9.20252 27.0552ZM52.8528 27.457C53.0829 29.5719 52.9852 32.3212 52.6111 34.2576L52.4822 34.9255L51.9896 34.2562C50.1511 31.7588 46.6983 30.4901 43.7971 31.2457C43.4259 31.3424 43.0852 31.4215 43.0399 31.4215C42.9948 31.4215 42.9578 30.7886 42.9578 30.015C42.9578 29.2414 42.9948 28.6085 43.0399 28.6085C43.0852 28.6085 43.4259 28.6876 43.7971 28.7843C46.7139 29.5441 50.3449 28.1849 52.0507 25.695L52.4516 25.1096L52.5891 25.7029C52.6647 26.0292 52.7833 26.8185 52.8528 27.457ZM15.9328 33.2345C17.2265 33.5788 17.5638 33.8422 17.9335 34.7963C18.3262 35.8099 19.0123 36.9928 19.814 38.0387C22.2697 41.2429 16.403 46.5312 12.4767 44.6526C11.5408 44.2047 8.55717 39.1389 8.55717 37.9977C8.55717 34.986 12.6303 32.3557 15.9328 33.2345ZM47.3785 33.2951C49.4492 33.9347 51.4554 36.2418 51.4554 37.9837C51.4554 39.1372 48.4791 44.2012 47.5358 44.6526C43.6068 46.5326 37.7411 41.2451 40.1986 38.0387C41.0014 36.9912 41.6869 35.8089 42.0781 34.7963C42.6681 33.2692 45.0816 32.5856 47.3785 33.2951ZM24.2631 41.6763C24.4887 41.7899 24.6931 41.9004 24.7174 41.9217C24.7416 41.9432 24.4337 42.3184 24.0331 42.7555C21.9511 45.0276 21.4226 48.8017 22.8103 51.4876C23.0437 51.9396 23.0377 51.9426 22.3584 51.7058C19.8938 50.8465 16.8672 49.0843 14.9889 47.4149L14.564 47.0372L15.2719 46.9571C18.5012 46.5918 21.2464 44.2684 22.1073 41.1719L22.3019 40.4716L23.0774 40.9707C23.5039 41.2451 24.0374 41.5627 24.2631 41.6763ZM38.5417 42.7342C39.8417 45.173 42.6939 47.0102 45.1802 47.0102C46.4472 47.0102 40.5257 50.7047 37.6541 51.7058C36.9749 51.9426 36.9688 51.9396 37.2023 51.4876C38.5899 48.8017 38.0614 45.0276 35.9794 42.7555C35.5788 42.3184 35.2709 41.9454 35.2952 41.9268C35.3194 41.908 35.6821 41.7022 36.1011 41.4694C36.5201 41.2365 37.0475 40.9169 37.2732 40.759L37.6834 40.4721L37.9246 41.2505C38.0573 41.6785 38.335 42.3463 38.5417 42.7342ZM30.0063 42.9509C31.0055 42.9509 32.044 42.8948 32.3142 42.8262C32.7741 42.7095 32.8418 42.726 33.378 43.0871C36.4202 45.1359 36.8806 49.4214 34.343 52.0704L33.6983 52.7433L32.6435 52.8652C32.0633 52.9323 30.8765 52.9871 30.0063 52.9871C29.136 52.9871 27.9493 52.9323 27.3691 52.8652L26.3142 52.7433L25.655 52.0578C23.14 49.4417 23.6115 45.1229 26.6345 43.0871C27.1708 42.726 27.2384 42.7095 27.6983 42.8262C27.9685 42.8948 29.0071 42.9509 30.0063 42.9509Z" fill="#000"/></svg>