<svg width="60" height="61" viewBox="0 0 60 61" fill="none" xmlns="http://www.w3.org/2000/svg"><path fill-rule="evenodd" clip-rule="evenodd" d="M26.9576 0.181023C1.82845 2.97033 -9.00796 33.4091 8.78032 51.2399C25.2405 67.7393 53.4516 59.9055 59.1085 37.2642C64.109 17.2503 47.3478 -2.08223 26.9576 0.181023ZM32.4835 3.57339C38.0676 4.12264 43.5698 6.47615 47.4461 9.97354L47.9499 10.4281L42.9808 15.391L38.0118 20.354L37.0958 19.0971C35.4796 16.8793 34.1111 15.2826 32.0315 13.1883L30.0005 11.1428L29.2308 11.899C19.6614 21.3006 14.891 32.4823 17.3151 39.829L17.6181 40.7471L14.0544 44.3123C12.0944 46.2732 10.4317 47.8775 10.3598 47.8775C9.66386 47.8775 6.34886 42.5572 5.21085 39.614C-1.86656 21.3099 13.005 1.65731 32.4835 3.57339ZM51.164 13.9445C61.2189 27.2348 56.8432 46.249 41.9988 53.7702C32.6537 58.505 21.4706 57.3084 13.2618 50.6951L12.0491 49.7183L15.4302 46.334L18.8114 42.9497L19.3327 43.5674C26.3144 51.8397 40.3351 49.0957 42.9479 38.9456C44.0614 34.6198 43.0126 29.0733 40.0859 23.8105C39.6988 23.1145 39.3821 22.5089 39.3821 22.4649C39.3821 22.4208 41.6879 20.0784 44.5063 17.2596L49.6304 12.1345L49.9095 12.3948C50.0629 12.538 50.6275 13.2353 51.164 13.9445ZM31.2988 15.9645C39.9083 24.982 43.1543 35.375 39.2128 41.3038C34.8077 47.9301 23.6732 47.3499 20.1598 40.3112C17.763 35.5093 19.3201 28.9451 24.6943 21.1959C26.1949 19.0321 29.7354 14.7063 30.006 14.7063C30.0564 14.7063 30.6381 15.2725 31.2988 15.9645ZM22.6794 30.8728C21.343 31.4341 21.1584 36.32 22.3802 38.7935C23.6802 41.4255 26.7395 43.189 30.0055 43.189C31.9681 43.189 32.0094 41.3263 30.0509 41.1429C25.0827 40.6773 22.8295 37.65 23.8535 32.8157C24.0847 31.7241 24.0742 31.5334 23.7636 31.1856C23.4662 30.8528 23.028 30.7264 22.6794 30.8728Z" fill="#000"/></svg>