<svg width="60" height="61" viewBox="0 0 60 61" fill="none" xmlns="http://www.w3.org/2000/svg"><path fill-rule="evenodd" clip-rule="evenodd" d="M19.7264 0.332953L19.4074 0.665788V3.04762V5.42945L18.4875 5.75362C17.9816 5.93191 17.098 6.29478 16.5242 6.55995L15.4807 7.04223L13.8535 5.42993C11.4007 2.99978 11.8757 2.85628 7.32972 7.40141L3.73905 10.9914V11.5736V12.1557L5.41663 13.772L7.0941 15.3885L6.62096 16.389C6.36065 16.9393 5.99304 17.83 5.80395 18.3685L5.4602 19.3475L3.11777 19.3477L0.775348 19.3481L0.387674 19.6945L0 20.0408V25.2706V30.5005L0.328799 30.8296L0.657716 31.1587L3.06163 31.1949L5.46554 31.2311L5.73985 32.0258C5.89072 32.4629 6.25086 33.3235 6.54013 33.9381L7.06621 35.0556L5.40263 36.744C3.77537 38.3956 3.73905 38.4438 3.73905 38.9508V39.4691L7.38907 43.1119C9.58264 45.301 11.1586 46.7833 11.3387 46.8266C11.8394 46.9471 12.1121 46.7606 13.8363 45.1196L15.4964 43.5396L16.6306 44.0371C17.2545 44.3107 18.1211 44.6547 18.5565 44.8014L19.3481 45.0682L19.4074 47.531L19.4668 49.9938L19.7999 50.28L20.1329 50.5662H25.2878H30.4427L30.8304 50.22L31.2181 49.8739L31.2774 47.4817L31.3368 45.0896L32.5238 44.6409C33.7437 44.1798 34.9175 43.622 35.676 43.1431L36.107 42.8712L39.23 45.9959L42.3528 49.1204L42.4237 51.9597C42.5048 55.2084 42.4203 54.9457 43.8148 56.2843C44.872 57.2993 48.0453 59.8246 48.6888 60.1632C49.0148 60.3346 51.7412 60.3461 52.0564 60.1773C52.9235 59.7133 52.8088 59.1469 51.3473 56.6792C49.603 53.7341 49.7729 52.6999 52.1849 51.577C53.7047 50.8696 54.3914 51.4147 56.4429 54.9581C57.5944 56.9469 58.4902 57.137 59.2856 55.5614C60.806 52.5494 59.8042 47.1692 57.1836 44.2734C56.2089 43.1963 55.8151 43.0563 52.3467 42.5534L49.3792 42.1233L46.2482 38.9997L43.1174 35.8761L43.7775 34.5264C44.1406 33.784 44.588 32.736 44.7718 32.1974L45.106 31.2182L47.3969 31.2181C50.9172 31.2181 50.6255 31.7558 50.6255 25.2661C50.6255 18.8111 50.9202 19.3481 47.3774 19.3481H45.0899L44.877 18.6656C44.7598 18.2902 44.4109 17.4134 44.1015 16.7172L43.5391 15.4514L45.0639 13.93C47.5994 11.4002 47.7404 11.8807 43.1082 7.26467C38.6388 2.81093 39.2747 3.00667 36.9061 5.35503L35.2164 7.03048L33.8107 6.43603C33.0376 6.10913 32.1514 5.74852 31.8413 5.6348L31.2774 5.42791V3.18282C31.2774 0.808584 31.1979 0.393728 30.6905 0.122261C30.5439 0.0436816 28.599 0 25.2538 0H20.0453L19.7264 0.332953ZM28.9034 4.49457C28.9034 7.29233 28.8322 7.16544 30.7381 7.7657C31.4861 8.0012 32.7281 8.50592 33.4979 8.88718C34.2678 9.26845 34.9917 9.61327 35.1066 9.65351C35.5153 9.79678 35.9855 9.46478 37.4799 7.97806L38.9936 6.47188L41.5432 9.01941L44.0929 11.567L42.4924 13.1821C40.5716 15.1206 40.6072 14.972 41.5973 16.9204C41.9851 17.6838 42.4999 18.9296 42.7412 19.6888C43.3921 21.7366 43.2596 21.6548 45.9986 21.6997L48.2515 21.7364V25.2831V28.8297L46.0055 28.8665C43.4506 28.9085 43.2792 28.9714 43.0176 29.964C42.7514 30.9741 42.268 32.2616 41.8155 33.1655L41.3456 34.104L39.4573 32.2156L37.569 30.3274L37.8019 29.7144C38.6085 27.5917 38.7434 24.131 38.1087 21.8449C36.8617 17.3529 32.9985 13.3237 32.0128 15.487C31.7236 16.1216 31.8229 16.3427 32.9096 17.485C35.7678 20.4893 36.7857 23.9229 35.9415 27.7123L35.7574 28.5391L35.0308 27.7715L34.3043 27.004L33.9063 24.0985C33.4476 20.7491 33.3478 20.4584 32.2922 19.3991C29.5857 16.683 23.935 15.5796 20.8189 17.1587C19.4345 17.8602 19.5454 18.8738 21.1016 19.7441C23.3891 21.0233 24.8873 22.1901 25.1104 22.866C25.5351 24.1528 23.6933 26.3468 22.1851 26.3507C22.048 26.351 21.0331 25.8115 19.9298 25.1518C16.617 23.1711 16.0853 23.2983 16.0843 26.0724C16.0837 27.618 16.014 27.478 18.1347 30.1951C21.067 33.9521 20.9958 33.9097 24.4855 33.9722L27.249 34.0216L28.0156 34.7814C28.9181 35.676 28.921 35.6704 27.4079 35.9838C23.1206 36.8718 18.5438 34.9416 16.1452 31.2339C11.6493 24.2839 16.2631 14.9339 24.4522 14.3997C25.9928 14.2993 26.4107 14.0286 26.4107 13.1308C26.4107 12.0482 25.1306 11.7597 22.6123 12.2749C13.076 14.2257 8.8816 25.5103 14.7822 33.341C18.2885 37.9942 24.9573 39.8327 30.2231 37.598L30.6526 37.4158L32.5228 39.2887L34.3931 41.1617L33.8739 41.4629C33.1724 41.87 31.5331 42.534 30.4465 42.8511C29.8338 43.03 29.4546 43.219 29.2299 43.4575L28.9034 43.8041V46.0591V48.3143L25.3128 48.283L21.7221 48.2515L21.6899 45.9765C21.6507 43.2116 21.7721 43.3985 19.5387 42.6636C18.6691 42.3775 17.4483 41.8752 16.8256 41.5475C15.0609 40.6184 15.0799 40.6134 13.1531 42.5213L11.5679 44.091L9.05301 41.5761L6.53811 39.0612L8.10602 37.4663C10.0387 35.5005 10.0115 35.6359 8.9089 33.4596C8.48811 32.6291 7.97485 31.3977 7.76843 30.7232C7.19618 28.8542 7.29458 28.9111 4.56757 28.8665L2.31465 28.8297V25.2831V21.7364L4.56757 21.6997C7.31156 21.6547 7.17232 21.7419 7.83693 19.6517C8.08489 18.8721 8.59957 17.6191 8.98084 16.8675C9.94432 14.9681 9.97578 15.1025 8.13094 13.2394C7.28224 12.3823 6.58785 11.6296 6.58785 11.5667C6.58785 11.5039 7.70944 10.3318 9.08031 8.96208L11.5726 6.47188L13.1458 8.03634C15.1317 10.0116 14.9646 9.96996 16.9502 8.98392C17.8121 8.55589 19.0513 8.03788 19.7042 7.83265C21.8244 7.16639 21.7108 7.35144 21.761 4.48092L21.8 2.2553H25.3517H28.9034V4.49457ZM26.7718 19.1166C28.6092 19.6187 31.1491 21.1503 31.1615 21.7635C31.163 21.8386 31.3701 23.3089 31.6219 25.0307L32.0795 28.1613L36.9903 33.0813C39.6912 35.7873 43.37 39.4306 45.1653 41.1774L48.4296 44.3534L51.2784 44.7395C52.8452 44.9519 54.3203 45.1747 54.5563 45.2348C55.8979 45.576 57.4885 48.7769 57.6982 51.5575L57.7711 52.5247L57.1234 51.5751C55.3271 48.9418 53.5332 48.308 51.1783 49.475C47.991 51.0544 46.9918 53.7897 48.6156 56.491C48.9428 57.0353 49.1908 57.5007 49.1665 57.5249C49.119 57.5724 46.4317 55.423 45.4773 54.5742L44.899 54.0599L44.7899 51.2744C44.7298 49.7424 44.6275 48.3529 44.5624 48.1866C44.4974 48.0203 40.8274 44.2732 36.4068 39.8597L28.3693 31.8352L27.479 31.7659C26.9894 31.7279 25.6273 31.6606 24.4522 31.6164L22.3156 31.5363L21.4628 30.5759C20.5347 29.5306 19.1113 27.7535 18.9282 27.4115C18.8554 27.2752 19.21 27.4316 19.9034 27.8413C22.6202 29.4467 25.4639 28.4295 26.9611 25.3164C28.076 22.9987 27.4269 21.0691 24.9955 19.4727C24.4682 19.1266 24.0367 18.8157 24.0367 18.7819C24.0367 18.6539 25.9235 18.8848 26.7718 19.1166Z" fill="#000"/></svg>