<svg width="60" height="59" viewBox="0 0 60 59" fill="none" xmlns="http://www.w3.org/2000/svg"><path fill-rule="evenodd" clip-rule="evenodd" d="M38.9196 0.161302C31.3636 1.09348 25.1863 5.83779 22.5948 12.699C22.3446 13.3616 22.284 13.4327 21.9203 13.492C21.6783 13.5314 21.0951 13.8781 20.4427 14.3702L19.3648 15.1833L18.9525 15.0149C18.7258 14.9223 18.5283 14.8352 18.5137 14.8215C18.4992 14.8078 18.4077 14.2272 18.3104 13.5314C17.9709 11.1025 17.6189 10.8473 14.6075 10.8473C11.4494 10.8473 10.7649 11.5243 10.7088 14.7036C10.7076 14.775 10.5036 14.9135 10.2555 15.0115L9.80443 15.1894L8.73422 14.3689C6.89183 12.9564 6.40366 13.0284 4.392 15.0091C2.10456 17.2614 2.01974 17.7584 3.57753 19.7788L4.3073 20.7251L4.13814 21.1392C4.04519 21.3669 3.95625 21.5668 3.94059 21.5834C3.92492 21.6001 3.35642 21.6869 2.67718 21.7766C0.304929 22.0893 0.060258 22.4039 0.00807265 25.2081C-0.0553037 28.6176 0.198555 28.9883 2.81477 29.3059L3.9347 29.442L4.1227 29.8838L4.3106 30.3258L3.49354 31.4006C2.08123 33.2584 2.15592 33.7572 4.14992 35.7884C6.41085 38.0914 6.83434 38.1645 8.85496 36.6005L9.77168 35.8909L10.2391 36.0458C10.4962 36.1311 10.7065 36.2417 10.7065 36.2916C10.7065 36.4161 10.9305 38.1436 11.0083 38.6201C11.1787 39.6624 12.0995 40.185 13.7656 40.185H14.9473L14.9499 42.2848C14.9541 45.6085 15.19 45.9147 18.0659 46.3281L19.3585 46.5139L19.5815 47.0562L19.8045 47.5983L18.8655 48.8393C17.289 50.9225 17.3539 51.3616 19.5749 53.6342C22.0045 56.1203 22.5418 56.2165 24.6696 54.5461L25.8093 53.6514L26.3567 53.8764L26.904 54.1014L27.0992 55.4911C27.491 58.2819 27.8156 58.5225 31.1819 58.5185C34.5907 58.5144 34.8946 58.2864 35.2668 55.4533C35.3642 54.7119 35.4572 54.096 35.4736 54.0848C35.5308 54.0454 36.5099 53.6709 36.5557 53.6709C36.5812 53.6709 37.0439 54.0216 37.5841 54.4502C39.8009 56.2094 40.1754 56.161 42.5555 53.8073C45.087 51.304 45.1363 50.8882 43.1947 48.4147L42.5509 47.5946L42.786 47.0357L43.0212 46.4768L44.2099 46.3371C47.0991 45.9977 47.3793 45.6748 47.4431 42.6113C47.4934 40.1922 47.38 39.5393 46.8021 38.924C46.5792 38.6867 46.4107 38.4833 46.4278 38.4721C46.4449 38.4608 46.8829 38.301 47.4012 38.1168C68.6065 30.5832 61.1943 -2.58662 38.9196 0.161302ZM42.6055 1.98059C57.2242 3.56424 63.7409 21.3161 53.6008 31.9327C50.791 34.8747 46.0016 37.3229 43.0154 37.344C41.8138 37.3525 43.28 35.4237 44.7785 35.0244C49.2879 33.8231 53.9132 30.0824 51.9819 29.1988C51.5115 28.9835 51.3815 29.0318 50.6691 29.6877C49.1046 31.1278 47.723 32.0209 45.9618 32.7304C44.5411 33.3028 44.5549 33.302 44.4499 32.8215C44.3354 32.298 41.2424 29.131 40.6558 28.9366C39.7198 28.6264 39.0898 28.8221 37.7858 29.828L36.5918 30.7489L36.1486 30.602C35.4544 30.372 35.4541 30.3713 35.2613 28.8804C35.0504 27.2478 34.8499 26.7763 34.1578 26.2851L33.6577 25.9302H31.3411C30.067 25.9302 28.8674 25.9568 28.6755 25.9894C27.628 26.1669 26.5092 20.7765 26.9561 17.7063C27.9683 10.7547 33.8347 5.64225 40.7991 5.64225C51.1563 5.64225 57.9235 16.5844 53.3364 25.9144C52.5823 27.4483 53.3406 28.892 54.3234 27.7934C58.4441 23.1873 56.7139 12.4201 51.0874 7.65543C38.0042 -3.42346 19.0454 11.4743 26.7201 26.8031C27.2525 27.8663 27.2519 27.8622 27.0653 29.3232C26.9019 30.6029 26.8001 30.6289 26.1028 29.5678C17.8635 17.0341 27.8263 0.379678 42.6055 1.98059ZM40.1565 9.66435C39.9318 9.89006 39.9209 10.0586 39.9209 13.3188V16.7365L39.6461 16.8058C38.2695 17.1528 37.3524 19.2515 37.9082 20.7825L38.1664 21.4936L36.9218 22.8838C35.3988 24.5851 35.2229 25.1399 36.0821 25.533C36.6089 25.7739 36.9256 25.5591 38.2729 24.0466C39.5641 22.5969 39.5848 22.5803 39.9559 22.6871C43.4833 23.703 45.3918 18.492 42.0742 16.9033L41.6879 16.7184V13.3848C41.6879 10.1914 41.6777 10.038 41.4437 9.73947C41.1378 9.34885 40.5073 9.31206 40.1565 9.66435ZM16.4131 12.8879C16.4443 13.0343 16.5282 13.6598 16.5996 14.2779C16.7878 15.9087 16.8665 16.0994 17.4544 16.35C17.7276 16.4666 18.236 16.6867 18.5839 16.8394C19.515 17.248 19.695 17.2104 20.7571 16.3853L21.699 15.6536L21.6229 16.1313C20.9501 20.3572 21.4694 24.337 23.1775 28.0418C23.5439 28.8367 23.611 29.0664 23.4563 28.996C22.3015 28.4711 21.6355 28.7825 19.6876 30.7582C17.7286 32.745 17.5899 33.0286 17.9614 34.2891C18.0032 34.4307 17.9072 34.5225 17.6167 34.6188C16.9444 34.8416 16.8274 35.0726 16.6438 36.5385C16.378 38.6612 16.6479 38.422 14.5614 38.3841L12.768 38.3514L12.5631 36.7589C12.3213 34.8809 12.3582 34.933 10.8433 34.3316C9.50734 33.8013 9.52206 33.7981 8.11494 34.9152C6.72514 36.0187 6.8718 36.0333 5.49602 34.6569C4.11528 33.2755 4.13142 33.4821 5.28763 31.9935C6.34264 30.6354 6.39353 30.4493 5.95178 29.5639C5.79864 29.2571 5.61111 28.8128 5.53501 28.5766C5.30683 27.8685 5.11882 27.779 3.3914 27.5547L1.81265 27.3498L1.78014 25.5457C1.76223 24.5536 1.76223 23.7383 1.78014 23.734C1.79804 23.7299 2.52086 23.6293 3.38646 23.5108C5.22908 23.2582 5.19928 23.2788 5.80418 21.8441C6.37669 20.4859 6.37551 20.4797 5.28775 19.069C4.14285 17.5842 4.11246 17.8881 5.55067 16.4389C6.98819 14.9903 6.67802 15.0224 8.1438 16.1706C9.54645 17.2693 9.56494 17.2727 10.9373 16.6893C12.3477 16.0895 12.3294 16.1159 12.5461 14.3902C12.6479 13.5802 12.7511 12.851 12.7753 12.7696C12.8686 12.4575 16.3455 12.5706 16.4131 12.8879ZM41.6408 18.8205C42.2987 19.4812 42.1565 20.4166 41.3332 20.8441C40.3568 21.3512 39.2404 20.4147 39.5568 19.3541C39.8522 18.3638 40.915 18.0917 41.6408 18.8205ZM13.9735 19.69C13.3208 20.4174 13.7795 21.1257 14.9989 21.2732C20.347 21.9197 19.9729 29.7188 14.5939 29.7148C10.7346 29.7119 8.91339 25.3264 11.5818 22.4615C12.8126 21.1401 11.6544 19.9874 10.3382 21.2239C6.17843 25.1311 9.77769 32.4099 15.448 31.5575C21.0259 30.7189 22.5152 23.3378 17.7156 20.3183C16.509 19.5592 14.4076 19.2063 13.9735 19.69ZM33.1241 27.7934C33.2722 27.9038 33.3791 28.3709 33.5458 29.6349C33.7974 31.5436 33.9082 31.7592 34.7714 32.0184C35.0445 32.1003 35.5179 32.2946 35.8235 32.4499C36.6797 32.885 36.8147 32.8428 38.3241 31.6676C40.0132 30.3527 39.8283 30.3369 41.421 31.9319C43.008 33.521 42.9888 33.3435 41.7461 34.9371C40.6692 36.3184 40.522 36.6277 40.7176 37.1005C40.7869 37.268 40.9836 37.751 41.1546 38.174C41.7678 39.6894 41.5348 39.5385 43.7224 39.8356C44.6147 39.9567 45.3966 40.088 45.46 40.1274C45.7405 40.3015 45.599 44.3158 45.3103 44.3778C45.1644 44.4092 44.3569 44.5197 43.5157 44.6234C41.7777 44.8378 41.6858 44.8885 41.3366 45.8257C41.2054 46.1777 40.9923 46.6741 40.863 46.9287C40.4633 47.7153 40.5322 47.9224 41.6899 49.4122C42.9966 51.0938 43.022 50.8684 41.3375 52.5393L39.9267 53.9385L39.6066 53.7279C39.4306 53.6121 38.7876 53.1255 38.1777 52.6468C36.8178 51.5793 36.7543 51.5619 35.7971 51.9934C35.3764 52.1831 34.8399 52.4005 34.6047 52.4767C33.8777 52.7121 33.7945 52.8959 33.5502 54.8084C33.2825 56.9031 33.4846 56.7426 31.1129 56.7448C28.8421 56.747 29.0688 56.9483 28.7999 54.69C28.6046 53.0503 28.457 52.6818 27.9435 52.5524C27.7627 52.5068 27.2165 52.2848 26.73 52.0591C25.6179 51.5431 25.5823 51.5524 24.0288 52.7698C23.3426 53.3076 22.7115 53.7887 22.6267 53.839C22.4368 53.9513 19.6593 51.2399 19.6593 50.9421C19.6593 50.8333 20.1364 50.1182 20.7195 49.353C21.8835 47.8257 21.9044 47.7616 21.5015 46.9536C21.3485 46.6468 21.1316 46.1141 21.0193 45.7701C20.7427 44.9215 20.5517 44.8272 18.605 44.5789C16.58 44.3206 16.718 44.4948 16.718 42.1961C16.718 39.9179 16.5619 40.1081 18.6526 39.8386C20.6993 39.575 20.6314 39.62 21.2477 38.1148C21.916 36.4827 21.9448 36.6505 20.7277 35.0801C19.4058 33.3745 19.3928 33.5368 20.9827 31.9357C22.565 30.3421 22.3733 30.363 23.9673 31.611C25.5856 32.8779 25.5109 32.8618 26.9864 32.2596C28.6329 31.5875 28.5622 31.6893 28.8228 29.6168C28.9725 28.4258 29.0972 27.8276 29.2107 27.7554C29.4784 27.5852 32.8892 27.6183 33.1241 27.7934ZM30.2613 35.5788C25.0936 36.3689 22.6637 42.7935 26.1132 46.5457C27.3047 47.8418 28.2957 46.611 27.271 45.1079C24.3657 40.8464 28.7766 35.5823 33.3513 37.8512C38.199 40.2556 36.0081 47.6242 30.6027 47.0952C29.4425 46.9817 28.8776 47.4449 29.206 48.2408C29.792 49.6619 34.0095 48.8422 35.9049 46.9388C40.3592 42.4657 36.4667 34.6299 30.2613 35.5788ZM19.4799 36.3956L19.8038 36.8648L19.5866 37.3918C19.2411 38.2309 18.1763 38.388 18.2943 37.5825C18.3323 37.3222 18.3931 36.9056 18.4294 36.6564C18.4803 36.306 18.5669 36.1752 18.8122 36.0776C18.9866 36.0082 19.1352 35.9458 19.1427 35.9389C19.1501 35.932 19.3018 36.1375 19.4799 36.3956Z" fill="#000"/></svg>