<svg width="60" height="61" viewBox="0 0 60 61" fill="none" xmlns="http://www.w3.org/2000/svg"><path fill-rule="evenodd" clip-rule="evenodd" d="M7.59094 0.0941945C6.22382 0.41733 4.9814 1.46434 4.32774 2.84418L3.94455 3.65293L3.91247 23.1149L3.88039 42.577H3.20009C1.79399 42.577 0.498294 43.4334 0.156998 44.5887C-0.0523325 45.2974 -0.0523325 57.2906 0.156998 57.9994C0.353494 58.6644 1.35644 59.6673 2.02148 59.8638C2.73518 60.0747 18.5927 60.0747 19.3064 59.8638C20.8961 59.3942 21.3181 58.3494 21.3181 54.8837V52.2666L38.8493 52.2342L56.3805 52.202L57.2954 51.7498C58.3973 51.2053 59.0836 50.5041 59.6168 49.3787L60 48.5699V26.1114V3.65293L59.6168 2.84418C59.0836 1.71871 58.3973 1.0176 57.2954 0.473023L56.3805 0.020826L32.2207 0.00193904C17.9111 -0.0091994 7.86928 0.0284534 7.59094 0.0941945ZM56.0824 2.03797C56.7981 2.25239 57.8813 3.29408 57.8813 3.76795C57.8813 3.80463 46.2222 3.83453 31.9723 3.83453C17.7223 3.83453 6.06352 3.79373 6.06376 3.74373C6.06594 3.31163 7.0879 2.31268 7.7872 2.05904C8.35175 1.85431 55.4008 1.83373 56.0824 2.03797ZM36.4418 5.81742C36.414 5.8426 34.9351 6.27845 33.1554 6.78598L29.9194 7.70878H18.8388H7.75826V25.1429V42.577H6.7897H5.82114V24.1743V5.77165H21.1567C29.5912 5.77165 36.4695 5.79224 36.4418 5.81742ZM58.1234 6.74022V7.70878H51.3435H44.5636V6.74022V5.77165H51.3435H58.1234V6.74022ZM42.6264 28.0616V49.9885L42.2935 49.9055C42.0465 49.844 32.693 47.1702 31.2156 46.7389C31.015 46.6803 31.0037 45.6854 31.0037 28.0427V9.40836L31.2761 9.33874C31.426 9.30048 33.973 8.56946 36.9361 7.71434C39.8993 6.85911 42.3919 6.15399 42.4751 6.14721C42.5957 6.13741 42.6264 10.5944 42.6264 28.0616ZM29.0666 10.6447L29.0667 11.6436L22.6196 11.6076C15.2274 11.5664 15.4067 11.5472 14.4735 12.4844C13.5781 13.3836 13.5696 13.4389 13.5696 18.3892C13.5696 22.8198 13.6007 23.1524 14.0807 23.8414C14.3094 24.1697 14.3092 24.1789 14.0758 24.5072C13.5871 25.1946 13.5523 25.6121 13.5921 30.3187L13.6302 34.8286L11.9352 34.8302C11.0029 34.831 10.1176 34.8647 9.96779 34.9048L9.69538 34.9778V22.3119V9.6459H19.381H29.0666V10.6447ZM58.1234 28.0485V46.4512H51.3435H44.5636V45.4278V44.4044L45.1661 44.4758C46.4707 44.6303 47.9351 43.7053 48.2906 42.5024C48.5005 41.7917 48.5037 14.313 48.2939 13.6126C47.9225 12.3732 46.5449 11.482 45.2129 11.6196L44.5636 11.6865V10.6663V9.6459H51.3435H58.1234V28.0485ZM52.312 11.7413C51.7178 11.9286 50.7044 12.978 50.5222 13.5947C50.3093 14.3151 50.3093 41.782 50.5222 42.5024C51.2794 45.0654 55.2818 45.0654 56.0391 42.5024C56.249 41.7917 56.2522 14.313 56.0423 13.6126C55.6003 12.1374 53.8466 11.2576 52.312 11.7413ZM19.381 15.4573V17.3944H22.2867H25.1924V15.4573V13.5201H26.8322C28.4121 13.5201 28.4832 13.531 28.7694 13.8174L29.0666 14.1145V18.3629V22.6114L28.7694 22.9085L28.4723 23.2057H22.2867H16.1011L15.804 22.9085L15.5067 22.6114V18.3629V14.1145L15.804 13.8174C16.0902 13.531 16.1613 13.5201 17.7411 13.5201H19.381V15.4573ZM23.2552 14.4887V15.4573H22.2867H21.3181V14.4887V13.5201H22.2867H23.2552V14.4887ZM46.2035 13.8174L46.5007 14.1145V28.0485V41.9826L46.2035 42.2797C46.0162 42.4672 45.768 42.577 45.5321 42.577C45.2963 42.577 45.0481 42.4672 44.8608 42.2797L44.5636 41.9826V28.0485V14.1145L44.8608 13.8174C45.0481 13.63 45.2963 13.5201 45.5321 13.5201C45.768 13.5201 46.0162 13.63 46.2035 13.8174ZM53.9519 13.8174L54.2492 14.1145V28.0485V41.9826L53.9519 42.2797C53.7647 42.4672 53.5165 42.577 53.2806 42.577C53.0448 42.577 52.7966 42.4672 52.6093 42.2797L52.312 41.9826V28.0485V14.1145L52.6093 13.8174C52.7966 13.63 53.0448 13.5201 53.2806 13.5201C53.5165 13.5201 53.7647 13.63 53.9519 13.8174ZM19.381 27.08V29.0171H22.2867H25.1924V27.08V25.1429H26.8322C28.4121 25.1429 28.4832 25.1538 28.7694 25.4401L29.0666 25.7372V29.9857V34.2341L28.7694 34.5312L28.4723 34.8285H22.2867H16.1011L15.804 34.5312L15.5067 34.2341V29.9857V25.7372L15.804 25.4401C16.0902 25.1538 16.1613 25.1429 17.7411 25.1429H19.381V27.08ZM23.2552 26.1114V27.08H22.2867H21.3181V26.1114V25.1429H22.2867H23.2552V26.1114ZM29.0666 41.5479V46.4512H27.0992H25.1318V41.6114V36.7715L26.9479 36.735C27.9467 36.7147 28.8321 36.6862 28.9153 36.6714C29.0343 36.6502 29.0666 37.6915 29.0666 41.5479ZM13.5696 38.7027V40.6398H16.4753H19.381V38.7027V36.7656H21.0209C22.6007 36.7656 22.6718 36.7765 22.958 37.0628L23.2552 37.3599V41.6084V45.8569L22.958 46.154C22.714 46.3981 22.5409 46.4512 21.9894 46.4512H21.3181V45.7691C21.3181 44.7182 21.1004 44.1671 20.4142 43.4809C19.5138 42.5805 19.4897 42.577 14.2517 42.577H9.69538V39.9685C9.69538 36.5931 9.57504 36.7656 11.9297 36.7656H13.5696V38.7027ZM17.4439 37.7342V38.7027H16.4753H15.5067V37.7342V36.7656H16.4753H17.4439V37.7342ZM5.82114 47.4198V50.3254H10.6639H15.5067V47.4198V44.5141H17.1466C18.7265 44.5141 18.7976 44.525 19.0838 44.8113L19.381 45.1084V51.294V57.4796L19.0838 57.7767L18.7867 58.0739H10.6639H2.54123L2.24412 57.7767L1.9469 57.4796V51.294V45.1084L2.24412 44.8113C2.53033 44.525 2.6014 44.5141 4.18125 44.5141H5.82114V47.4198ZM13.5696 46.4512V48.3883H12.6011H11.6325V47.4198V46.4512H10.6639H9.69538V47.4198V48.3883H8.72682H7.75826V46.4512V44.5141H10.6639H13.5696V46.4512ZM33.1554 49.3111C34.9351 49.8186 36.414 50.2545 36.4418 50.2797C36.4695 50.3049 33.078 50.3254 28.9052 50.3254H21.3181V49.3569V48.3883H25.6188H29.9194L33.1554 49.3111ZM57.8813 48.4549C57.8813 48.9288 56.7981 49.9705 56.0824 50.1849C55.7561 50.2827 53.9312 50.3254 50.0885 50.3254H44.5636V49.3569V48.3883H51.2224C54.8848 48.3883 57.8813 48.4182 57.8813 48.4549Z" fill="#000"/></svg>