<svg width="60" height="61" viewBox="0 0 60 61" fill="none" xmlns="http://www.w3.org/2000/svg"><path fill-rule="evenodd" clip-rule="evenodd" d="M6.08169 0.187307C3.38989 0.674353 1.02741 2.86316 0.283306 5.55931C-0.0514628 6.77258 -0.109473 24.1628 0.216956 25.4472C1.04735 28.7142 4.10728 31.17 7.36142 31.181L7.98141 31.183L8.03314 33.872C8.09888 37.2949 8.40295 38.0763 9.97987 38.8755C12.0071 39.9028 12.4761 39.6564 17.014 35.1805L20.7605 31.4851L20.8209 39.099L20.8814 46.7129L21.193 47.5129C21.9385 49.4267 23.2273 50.8746 24.93 51.7113C26.6192 52.5414 26.897 52.5699 33.3269 52.5723L39.0045 52.5743L42.7536 56.3151C46.9319 60.4841 47.0809 60.5953 48.4967 60.5953C51.1073 60.5953 51.9988 59.1004 52.0006 54.7195L52.0015 52.5743L52.5756 52.5723C55.8289 52.5603 58.9809 50.0572 59.7956 46.8386C60.0686 45.7604 60.0679 28.2036 59.7949 27.1295C59.1699 24.6709 57.2566 22.6062 54.8416 21.7845L53.8748 21.4555L46.5328 21.4194L39.1909 21.3832V13.9752C39.1909 6.96631 39.1778 6.51637 38.9496 5.62349C38.2506 2.89096 35.8664 0.6781 33.0876 0.183077C31.703 -0.0635879 7.44723 -0.0598414 6.08169 0.187307ZM32.5184 3.01894C33.9584 3.29207 35.1882 4.22616 35.8334 5.53684L36.23 6.34209V15.5902V24.8381L35.8826 25.5901C35.457 26.5115 34.5139 27.4405 33.5413 27.8962L32.846 28.2221L26.352 28.2825L19.858 28.3429L18.4964 29.6717C17.7476 30.4026 15.9053 32.2164 14.4024 33.7024C10.7666 37.2975 10.9153 37.3496 10.9126 32.478C10.9102 28.1958 11.0287 28.3786 8.19158 28.2798C5.57446 28.1887 4.35105 27.5291 3.37744 25.6841L2.99481 24.959V15.6506V6.34221L3.39134 5.53684C4.0141 4.27172 5.26894 3.29316 6.60922 3.02752C7.3265 2.88528 31.771 2.87718 32.5184 3.01894ZM18.2942 7.75295C15.783 8.16978 14.0434 10.5197 15.4006 11.6616C16.0827 12.2356 16.7293 12.0831 17.3872 11.193C17.8294 10.5946 18.5124 10.2804 19.3707 10.2804C21.4959 10.2804 22.1107 11.9901 20.5088 13.4451C20.1964 13.7289 19.6433 14.233 19.2799 14.5652C17.6381 16.0662 17.2741 19.0163 18.6912 19.3358C19.751 19.5749 20.458 19.1217 20.4591 18.2026C20.4603 17.0003 20.6116 16.731 22.0955 15.2897C23.2316 14.1862 23.5324 13.8155 23.8612 13.1143C25.3641 9.90865 22.4155 7.06892 18.2942 7.75295ZM18.3209 20.7834C17.8316 21.0818 17.6787 21.3717 17.6787 22.0016C17.6787 23.6595 19.8033 24.1533 20.512 22.6601C21.1515 21.3124 19.6136 19.9952 18.3209 20.7834ZM54.2068 24.6352C55.1763 25.0266 56.1312 25.9341 56.6213 26.9299L57.017 27.7337V36.9842V46.2347L56.6213 47.0383C55.7246 48.8597 54.4414 49.5639 51.8807 49.6396C49.0261 49.7241 49.1775 49.4906 49.101 53.9261C49.0372 57.6211 49.0118 57.7711 48.4477 57.7711C48.3798 57.7711 46.5818 56.0385 44.4524 53.9208C42.323 51.8032 40.4462 49.9813 40.2819 49.8722C40.0149 49.6949 39.3404 49.6738 33.9323 49.6738C26.0042 49.6738 25.3045 49.4774 24.1034 46.9153L23.7819 46.2295L23.749 38.7062L23.7161 31.183L28.0998 31.181C31.4533 31.1793 32.6769 31.1378 33.3071 31.0043C36.1107 30.4103 38.4163 28.0902 39.0269 25.2488L39.234 24.2853L46.3731 24.32L53.5122 24.3547L54.2068 24.6352ZM30.8266 34.9281C30.269 35.0962 29.746 35.5485 29.511 36.0657C28.5642 38.1504 31.0401 40.0657 32.7844 38.5981C34.5003 37.1542 32.9684 34.2825 30.8266 34.9281ZM39.7499 34.9822C38.2195 35.5407 37.7839 37.3496 38.9089 38.4746C40.7869 40.3526 43.7227 37.6872 42.0135 35.6558C41.4273 34.9592 40.5381 34.6947 39.7499 34.9822ZM48.6968 34.9794C46.7379 35.7009 46.8085 38.3817 48.8037 39.0402C49.7058 39.3379 50.8782 38.8047 51.2833 37.9127C52.0643 36.1926 50.4313 34.3406 48.6968 34.9794Z" fill="#000"/></svg>