<svg width="22" height="15" viewBox="0 0 22 15" fill="none" xmlns="http://www.w3.org/2000/svg"><path d="M11.9825 14.1735C4.46596 14.1735 0.178638 8.88446 0 0.0834961H3.76515C3.88882 6.54318 6.66459 9.27937 8.86321 9.84354V0.0834961H12.4085V5.65462C14.5796 5.41485 16.8607 2.87611 17.6302 0.0834961H21.1755C20.8855 1.53182 20.3075 2.90316 19.4776 4.11173C18.6477 5.3203 17.5837 6.34009 16.3523 7.10734C17.7269 7.80839 18.941 8.80068 19.9145 10.0187C20.888 11.2367 21.5988 12.6528 22 14.1735H18.0974C17.7373 12.8527 17.0054 11.6703 15.9934 10.7746C14.9814 9.87891 13.7343 9.3097 12.4085 9.13833V14.1735H11.9825V14.1735Z" fill="#fff"/></svg>