<svg width="21" height="23" viewBox="0 0 21 23" fill="none" xmlns="http://www.w3.org/2000/svg"><path d="M17.9268 4.05289C15.9512 2.07148 13.3171 0.970703 10.5366 0.970703C4.7561 0.970703 0.0731696 5.66737 0.0731696 11.4648C0.0731696 13.2995 0.585366 15.1341 1.46341 16.6752L0 22.1057L5.56098 20.638C7.09756 21.4452 8.78049 21.8855 10.5366 21.8855C16.3171 21.8855 21 17.1889 21 11.3914C20.9268 8.67617 19.9024 6.0343 17.9268 4.05289ZM15.5854 15.2075C15.3659 15.7946 14.3415 16.3816 13.8293 16.455C13.3902 16.5284 12.8049 16.5284 12.2195 16.3816C11.8537 16.2349 11.3415 16.0881 10.7561 15.7946C8.12195 14.6938 6.43903 12.0519 6.29268 11.8317C6.14634 11.685 5.19512 10.4374 5.19512 9.11648C5.19512 7.79555 5.85366 7.20846 6.07317 6.91492C6.29268 6.62138 6.58536 6.62138 6.80488 6.62138C6.95122 6.62138 7.17073 6.62138 7.31707 6.62138C7.46341 6.62138 7.68293 6.54799 7.90244 7.06169C8.12195 7.57539 8.63414 8.89633 8.70731 8.96971C8.78049 9.11648 8.78049 9.26326 8.70731 9.41003C8.63414 9.5568 8.56097 9.70357 8.41463 9.85034C8.26829 9.99711 8.12195 10.2173 8.04878 10.2907C7.90244 10.4374 7.7561 10.5842 7.90244 10.8043C8.04878 11.0979 8.56097 11.9051 9.36585 12.639C10.3902 13.5196 11.1951 13.8132 11.4878 13.9599C11.7805 14.1067 11.9268 14.0333 12.0732 13.8865C12.2195 13.7398 12.7317 13.1527 12.878 12.8591C13.0244 12.5656 13.2439 12.639 13.4634 12.7124C13.6829 12.7858 15 13.4462 15.2195 13.593C15.5122 13.7398 15.6585 13.8132 15.7317 13.8865C15.8049 14.1067 15.8049 14.6204 15.5854 15.2075Z" fill="#fff"/></svg>